<svg width="14" height="15" viewBox="0 0 14 15" fill="none" xmlns="http://www.w3.org/2000/svg">
<path fill-rule="evenodd" clip-rule="evenodd" d="M6.9196 2.77644C8.219 2.77644 9.09553 3.35885 9.59531 3.84552L11.5483 1.86693C10.3488 0.710092 8.78797 3.05176e-05 6.9196 3.05176e-05C4.21318 3.05176e-05 1.87579 1.61163 0.737854 3.95721L2.97528 5.76029C3.53657 4.02902 5.0897 2.77644 6.9196 2.77644Z" fill="#EA4335"/>
<path fill-rule="evenodd" clip-rule="evenodd" d="M13.5633 7.33998C13.5633 6.7496 13.5171 6.31877 13.4172 5.87199H6.92017V8.53671H10.7338C10.6569 9.1989 10.2417 10.1962 9.31906 10.8663L11.5027 12.6215C12.8097 11.369 13.5633 9.52601 13.5633 7.33998Z" fill="#4285F4"/>
<path fill-rule="evenodd" clip-rule="evenodd" d="M2.98324 8.60051C2.83715 8.15373 2.75258 7.67504 2.75258 7.18039C2.75258 6.68574 2.83715 6.20705 2.97555 5.76027L0.738123 3.9572C0.269107 4.93054 0 6.02355 0 7.18039C0 8.33723 0.269107 9.43024 0.738123 10.4036L2.98324 8.60051Z" fill="#FBBC05"/>
<path fill-rule="evenodd" clip-rule="evenodd" d="M6.91969 14.3608C8.78806 14.3608 10.3566 13.7226 11.5022 12.6216L9.3186 10.8664C8.73424 11.2892 7.94995 11.5844 6.91969 11.5844C5.08976 11.5844 3.53662 10.3319 2.98303 8.60059L0.745605 10.4037C1.88354 12.7492 4.21324 14.3608 6.91969 14.3608Z" fill="#34A853"/>
</svg>
