<svg width="421" height="370" viewBox="0 0 421 370" fill="none" xmlns="http://www.w3.org/2000/svg">
<path opacity="0.1" d="M395.548 200.861C380.757 224.409 385.638 258.021 394.188 284.8C397.051 293.764 400.304 303.245 398.819 312.999C397.006 324.922 388.483 333.855 379.624 338.721C363.473 347.588 344.395 346.173 329.948 334.999C317.481 325.356 308.705 309.33 295.996 300.146C274.726 284.782 247.113 291.647 223.441 303.377C206.694 311.675 188.348 322.362 172.027 314.699C160.543 309.308 152.809 295.583 148.74 280.912C146.776 273.828 145.401 266.139 141.487 260.594C139.16 257.298 136.084 255.001 132.922 253.081C104.063 235.547 66.9409 246.506 38.9616 226.943C20.0721 213.731 8.31518 188.092 3.43034 161.138C-1.45451 134.184 -0.245573 105.731 1.70005 77.765C3.08277 57.8904 5.27019 36.6526 15.5688 21.0344C26.4605 4.5219 44.7154 -2.04013 61.0398 0.546107C77.3642 3.13234 91.9998 13.6526 104.803 26.2112C120.818 41.8777 135.552 61.5462 155.469 67.4946C169.035 71.5449 183.448 68.6781 197.551 67.4113C221.125 65.2985 244.616 67.7313 267.964 70.4797C290.314 73.1098 312.819 76.0467 333.987 84.669C348.966 90.7707 360.84 102.304 374.943 110.185C384.135 115.322 394.248 116.515 402.9 123.151C413.576 131.326 423.225 145.809 420.093 163.19C417.135 179.711 403.406 188.364 395.548 200.861Z" fill="#2D74DA"/>
<g opacity="0.5">
<path opacity="0.5" d="M323.007 308.263C323.007 308.263 324.254 265.411 344.235 241.197C352.622 231.036 358.131 218.131 359.589 204.165C360.271 197.537 360.427 190.851 360.057 184.19" stroke="#535461" stroke-width="2" stroke-miterlimit="10"/>
<path opacity="0.5" d="M372.575 168.853C371.207 173.639 359.775 184.633 359.775 184.633C359.775 184.633 356.273 167.884 357.641 163.101C357.966 161.964 358.481 160.911 359.157 160.005C359.833 159.098 360.656 158.354 361.579 157.817C362.502 157.279 363.508 156.958 364.538 156.871C365.569 156.784 366.604 156.934 367.584 157.311C368.565 157.688 369.472 158.286 370.253 159.07C371.035 159.854 371.676 160.809 372.139 161.88C372.603 162.952 372.88 164.118 372.954 165.314C373.029 166.51 372.9 167.71 372.575 168.848V168.853Z" fill="#2D74DA"/>
<path opacity="0.5" d="M377.34 200.107C373.939 203.263 359.206 205.288 359.206 205.288C359.206 205.288 364.117 189.021 367.517 185.869C368.317 185.062 369.249 184.45 370.257 184.071C371.266 183.692 372.33 183.553 373.386 183.664C374.442 183.774 375.468 184.131 376.402 184.713C377.336 185.295 378.159 186.09 378.822 187.05C379.484 188.01 379.973 189.116 380.257 190.301C380.542 191.486 380.618 192.725 380.479 193.945C380.341 195.165 379.991 196.339 379.452 197.398C378.912 198.457 378.194 199.378 377.34 200.107V200.107Z" fill="#2D74DA"/>
<path opacity="0.5" d="M363.86 245.186C359.561 245.923 345.949 239.049 345.949 239.049C345.949 239.049 357.26 227.88 361.559 227.144C362.581 226.969 363.623 227.029 364.625 227.321C365.627 227.612 366.57 228.13 367.399 228.845C368.229 229.56 368.929 230.457 369.46 231.485C369.99 232.514 370.341 233.653 370.492 234.839C370.643 236.025 370.592 237.234 370.34 238.396C370.089 239.559 369.642 240.653 369.026 241.615C368.41 242.578 367.637 243.39 366.751 244.006C365.864 244.621 364.882 245.029 363.86 245.204V245.186Z" fill="#2D74DA"/>
<path opacity="0.5" d="M347.035 276.633C342.906 278.202 328.486 274.082 328.486 274.082C328.486 274.082 338.01 260.857 342.139 259.288C344.121 258.532 346.281 258.721 348.144 259.813C350.006 260.905 351.418 262.811 352.069 265.111C352.72 267.411 352.558 269.917 351.616 272.078C350.675 274.239 349.033 275.877 347.05 276.633H347.035Z" fill="#2D74DA"/>
<path opacity="0.5" d="M343.258 200.181C345.264 204.652 358.071 213.406 358.071 213.406C358.071 213.406 359.235 196.228 357.229 191.752C356.752 190.689 356.099 189.745 355.308 188.974C354.517 188.204 353.603 187.622 352.618 187.261C351.633 186.9 350.596 186.768 349.567 186.873C348.538 186.977 347.537 187.315 346.62 187.868C345.704 188.421 344.89 189.179 344.226 190.097C343.562 191.015 343.06 192.075 342.75 193.218C342.439 194.361 342.325 195.564 342.415 196.758C342.505 197.952 342.796 199.114 343.273 200.177L343.258 200.181Z" fill="#2D74DA"/>
<path opacity="0.5" d="M323.988 237.243C327.056 240.816 341.518 244.726 341.518 244.726C341.518 244.726 338.197 227.928 335.133 224.356C333.661 222.641 331.662 221.675 329.575 221.671C327.489 221.666 325.487 222.623 324.009 224.332C322.531 226.04 321.699 228.36 321.695 230.78C321.691 233.201 322.516 235.524 323.988 237.239V237.243Z" fill="#2D74DA"/>
<path opacity="0.5" d="M309.518 276.251C312.019 280.372 325.706 287.065 325.706 287.065C325.706 287.065 324.882 269.86 322.378 265.735C321.798 264.713 321.047 263.836 320.17 263.157C319.292 262.478 318.306 262.01 317.27 261.782C316.233 261.555 315.168 261.571 314.137 261.83C313.106 262.09 312.131 262.588 311.269 263.293C310.408 263.999 309.677 264.899 309.121 265.939C308.565 266.979 308.195 268.138 308.033 269.347C307.871 270.557 307.92 271.791 308.178 272.978C308.436 274.165 308.896 275.28 309.533 276.256L309.518 276.251Z" fill="#2D74DA"/>
<path opacity="0.5" d="M327.398 290.528C327.398 290.528 316.064 271.399 318.052 253.4C318.927 245.857 317.671 238.188 314.47 231.544C312.929 228.404 311.144 225.434 309.136 222.672" stroke="#535461" stroke-width="2" stroke-miterlimit="10"/>
<path opacity="0.5" d="M310.333 211.319C311.062 213.914 309.135 222.97 309.135 222.97C309.135 222.97 302.966 216.982 302.237 214.392C301.886 213.146 301.976 211.79 302.487 210.621C302.999 209.453 303.889 208.568 304.963 208.161C306.036 207.754 307.205 207.858 308.212 208.452C309.219 209.045 309.982 210.078 310.333 211.323V211.319Z" fill="#2D74DA"/>
<path opacity="0.5" d="M321.073 223.15C320.473 225.78 314.609 232.176 314.609 232.176C314.609 232.176 312.237 223.26 312.837 220.621C313.126 219.354 313.838 218.271 314.814 217.613C315.791 216.954 316.953 216.772 318.045 217.107C319.137 217.443 320.07 218.268 320.638 219.401C321.206 220.534 321.362 221.883 321.073 223.15V223.15Z" fill="#2D74DA"/>
<path opacity="0.5" d="M327.7 247.812C326.034 249.737 318.195 251.819 318.195 251.819C318.195 251.819 320.023 242.732 321.693 240.807C322.09 240.35 322.561 239.987 323.078 239.741C323.596 239.494 324.15 239.368 324.71 239.37C325.269 239.372 325.823 239.502 326.339 239.753C326.856 240.003 327.324 240.369 327.719 240.829C328.113 241.29 328.426 241.836 328.638 242.437C328.851 243.037 328.959 243.68 328.957 244.33C328.956 244.979 328.844 245.621 328.628 246.22C328.412 246.82 328.097 247.363 327.7 247.821V247.812Z" fill="#2D74DA"/>
<path opacity="0.5" d="M329.096 267.787C327.732 270.01 320.293 273.591 320.293 273.591C320.293 273.591 320.773 264.276 322.137 262.054C322.461 261.525 322.871 261.075 323.345 260.73C323.819 260.385 324.346 260.152 324.898 260.044C325.449 259.935 326.014 259.954 326.559 260.099C327.104 260.244 327.62 260.512 328.075 260.888C328.531 261.264 328.919 261.74 329.216 262.29C329.514 262.84 329.715 263.452 329.808 264.092C329.901 264.732 329.885 265.387 329.76 266.019C329.635 266.652 329.404 267.25 329.08 267.779L329.096 267.787Z" fill="#2D74DA"/>
<path opacity="0.5" d="M306.254 235.893C308.366 237.094 316.364 236.13 316.364 236.13C316.364 236.13 312.106 228.213 309.995 227.016C308.98 226.441 307.81 226.357 306.742 226.782C305.674 227.207 304.795 228.108 304.299 229.285C303.803 230.462 303.731 231.819 304.097 233.059C304.464 234.298 305.24 235.317 306.254 235.893V235.893Z" fill="#2D74DA"/>
<path opacity="0.5" d="M308.139 259.235C310.466 259.647 317.848 255.952 317.848 255.952C317.848 255.952 311.743 249.876 309.42 249.482C308.303 249.285 307.165 249.611 306.255 250.387C305.345 251.164 304.739 252.329 304.569 253.624C304.399 254.92 304.68 256.241 305.349 257.296C306.019 258.352 307.022 259.056 308.139 259.253V259.235Z" fill="#2D74DA"/>
<path opacity="0.5" d="M312.649 281.621C314.882 282.497 322.698 280.306 322.698 280.306C322.698 280.306 317.568 273.121 315.335 272.258C314.263 271.844 313.093 271.942 312.083 272.529C311.073 273.117 310.306 274.146 309.95 275.39C309.593 276.634 309.678 277.991 310.184 279.163C310.69 280.334 311.577 281.225 312.649 281.638V281.621Z" fill="#2D74DA"/>
<path opacity="0.5" d="M310.333 211.319C311.062 213.914 309.135 222.97 309.135 222.97C309.135 222.97 302.966 216.982 302.237 214.392C301.886 213.146 301.976 211.79 302.487 210.621C302.999 209.453 303.889 208.568 304.963 208.161C306.036 207.754 307.205 207.858 308.212 208.452C309.219 209.045 309.982 210.078 310.333 211.323V211.319Z" fill="white"/>
<path opacity="0.5" d="M321.073 223.15C320.473 225.78 314.609 232.176 314.609 232.176C314.609 232.176 312.237 223.26 312.837 220.621C313.126 219.354 313.838 218.271 314.814 217.613C315.791 216.954 316.953 216.772 318.045 217.107C319.137 217.443 320.07 218.268 320.638 219.401C321.206 220.534 321.362 221.883 321.073 223.15V223.15Z" fill="white"/>
<path opacity="0.5" d="M327.7 247.812C326.034 249.737 318.195 251.819 318.195 251.819C318.195 251.819 320.023 242.732 321.693 240.807C322.09 240.35 322.561 239.987 323.078 239.741C323.596 239.494 324.15 239.368 324.71 239.37C325.269 239.372 325.823 239.502 326.339 239.753C326.856 240.003 327.324 240.369 327.719 240.829C328.113 241.29 328.426 241.836 328.638 242.437C328.851 243.037 328.959 243.68 328.957 244.33C328.956 244.979 328.844 245.621 328.628 246.22C328.412 246.82 328.097 247.363 327.7 247.821V247.812Z" fill="white"/>
<path opacity="0.5" d="M329.096 267.787C327.732 270.01 320.293 273.591 320.293 273.591C320.293 273.591 320.773 264.276 322.137 262.054C322.461 261.525 322.871 261.075 323.345 260.73C323.819 260.385 324.346 260.152 324.898 260.044C325.449 259.935 326.014 259.954 326.559 260.099C327.104 260.244 327.62 260.512 328.075 260.888C328.531 261.264 328.919 261.74 329.216 262.29C329.514 262.84 329.715 263.452 329.808 264.092C329.901 264.732 329.885 265.387 329.76 266.019C329.635 266.652 329.404 267.25 329.08 267.779L329.096 267.787Z" fill="white"/>
<path opacity="0.5" d="M306.254 235.893C308.366 237.094 316.364 236.13 316.364 236.13C316.364 236.13 312.106 228.213 309.995 227.016C308.98 226.441 307.81 226.357 306.742 226.782C305.674 227.207 304.795 228.108 304.299 229.285C303.803 230.462 303.731 231.819 304.097 233.059C304.464 234.298 305.24 235.317 306.254 235.893V235.893Z" fill="white"/>
<path opacity="0.5" d="M308.139 259.235C310.466 259.647 317.848 255.952 317.848 255.952C317.848 255.952 311.743 249.876 309.42 249.482C308.303 249.285 307.165 249.611 306.255 250.387C305.345 251.164 304.739 252.329 304.569 253.624C304.399 254.92 304.68 256.241 305.349 257.296C306.019 258.352 307.022 259.056 308.139 259.253V259.235Z" fill="white"/>
<path opacity="0.5" d="M312.649 281.621C314.882 282.497 322.698 280.306 322.698 280.306C322.698 280.306 317.568 273.121 315.335 272.258C314.263 271.844 313.093 271.942 312.083 272.529C311.073 273.117 310.306 274.146 309.95 275.39C309.593 276.634 309.678 277.991 310.184 279.163C310.69 280.334 311.577 281.225 312.649 281.638V281.621Z" fill="white"/>
<path opacity="0.5" d="M306.427 342.397H338.664L346.726 285.355H298.369L306.427 342.397Z" fill="#474059"/>
<path opacity="0.1" d="M304.538 285.355L312.068 338.658H339.193L338.664 342.397H306.427L298.369 285.355H304.538Z" fill="black"/>
</g>
<path d="M312.54 17.2249H76.0427V348.307H312.54V17.2249Z" fill="url(#paint0_linear_1_18)"/>
<path d="M309.518 21.4592H79.0646V344.081H309.518V21.4592Z" fill="white"/>
<path d="M261.538 57.8417H168.602V63.1019H261.538V57.8417Z" fill="#C0BCCF"/>
<path d="M261.538 74.4988H168.602V79.759H261.538V74.4988Z" fill="#C0BCCF"/>
<path d="M239.249 91.156H190.891V96.4161H239.249V91.156Z" fill="#2D74DA"/>
<path opacity="0.5" d="M261.538 163.483H168.602V168.743H261.538V163.483Z" fill="#C0BCCF"/>
<path opacity="0.5" d="M261.538 180.14H168.602V185.4H261.538V180.14Z" fill="#C0BCCF"/>
<path opacity="0.5" d="M239.249 196.797H190.891V202.057H239.249V196.797Z" fill="#2D74DA"/>
<path opacity="0.5" d="M261.538 269.124H168.602V274.384H261.538V269.124Z" fill="#C0BCCF"/>
<path opacity="0.5" d="M261.538 285.781H168.602V291.041H261.538V285.781Z" fill="#C0BCCF"/>
<path opacity="0.5" d="M239.249 302.438H190.891V307.698H239.249V302.438Z" fill="#2D74DA"/>
<g opacity="0.5">
<path opacity="0.5" d="M135.88 192.821L133.931 191.804C133.961 191.461 133.973 191.115 133.969 190.77C133.982 190.478 133.982 190.185 133.969 189.893C133.776 187.588 132.511 185.58 131.615 183.472C130.795 181.547 130.275 179.469 130.078 177.335C129.84 174.705 130.078 171.978 129.246 169.506C128.57 167.511 127.233 165.846 125.801 164.373C124.194 162.623 122.316 161.241 120.266 160.301C118.173 159.424 115.767 159.2 113.674 160.095C111.785 160.901 110.33 162.51 108.925 164.075C107.904 165.118 107.003 166.308 106.243 167.617C105.385 169.247 105.019 171.123 104.732 172.973C104.28 175.935 103.97 178.923 103.802 181.924C103.655 184.427 103.424 187.268 101.581 188.802C100.682 189.551 99.416 189.972 99.0042 191.107C98.8875 191.448 98.8409 191.816 98.8682 192.181C98.8568 192.485 98.8759 192.79 98.9248 193.089C98.9513 193.264 98.9815 193.435 99.0193 193.61C98.4902 195.136 98.046 196.7 97.6895 198.292C97.4137 199.475 97.1606 200.637 96.9339 201.764H97.5459H97.8708L101.392 201.86H101.441L105.219 201.961H105.238L108.759 202.057H108.846L109.862 202.141H110.194L124.275 202.518H124.35L125.287 202.544H125.616L128.434 202.618L132.59 202.728H132.62L135.748 202.816H136.081H136.723L136.557 199.011C137.244 193.185 135.88 192.821 135.88 192.821ZM120.062 192.357C120.062 195.583 117.085 199.532 117.085 199.532L114.089 194.798L114.199 194.614L117.085 199.173C117.085 199.173 120.062 195.228 120.062 191.997C120.132 191.833 120.211 191.675 120.3 191.524L120.368 191.769C120.254 191.956 120.152 192.152 120.062 192.357V192.357ZM124.641 205.016C124.641 204.854 124.641 204.687 124.615 204.525C124.588 204.363 124.592 204.218 124.573 204.061C124.554 203.903 124.539 203.749 124.52 203.592C124.501 203.434 124.475 203.28 124.448 203.122C124.422 202.965 124.396 202.811 124.365 202.653C124.365 202.601 124.346 202.553 124.335 202.496C124.294 202.29 124.248 202.084 124.199 201.878C124.15 201.672 124.12 201.544 124.074 201.382C124.074 201.308 124.037 201.233 124.014 201.163C123.991 201.093 123.95 200.926 123.916 200.808L123.848 200.58C123.818 200.479 123.787 200.374 123.753 200.273C123.697 200.089 123.636 199.909 123.576 199.725C123.515 199.541 123.451 199.361 123.387 199.182C123.258 198.814 123.119 198.45 122.979 198.082C122.431 196.661 121.815 195.263 121.249 193.878C120.945 193.153 120.675 192.41 120.44 191.651L120.368 191.761C120.254 191.949 120.152 192.147 120.062 192.352C120.062 195.579 117.085 199.528 117.085 199.528L114.089 194.794L111.468 199.177C111.09 199.397 110.712 200.142 110.417 201.203C110.334 201.487 110.255 201.803 110.179 202.132C110.126 202.355 110.077 202.57 110.032 202.82C110.005 202.938 109.983 203.057 109.96 203.179L109.892 203.552V203.609C109.847 203.863 109.801 204.126 109.76 204.394C109.718 204.661 109.669 204.968 109.628 205.27C109.597 205.46 109.571 205.649 109.548 205.836C109.495 206.2 109.45 206.568 109.405 206.936C109.378 207.151 109.352 207.374 109.329 207.572L109.239 208.387C109.431 209.058 109.647 209.702 109.869 210.377C110.011 210.732 110.095 211.114 110.115 211.504C114.763 212.941 119.654 212.941 124.301 211.504C124.3 211.491 124.3 211.477 124.301 211.464C124.231 211.097 124.201 210.722 124.21 210.346C124.287 209.293 124.413 208.245 124.588 207.208C124.644 206.696 124.668 206.181 124.66 205.665V205.481C124.649 205.314 124.645 205.165 124.641 205.021V205.016ZM124.641 205.016C124.641 204.854 124.641 204.687 124.615 204.525C124.588 204.363 124.592 204.218 124.573 204.061C124.554 203.903 124.539 203.749 124.52 203.592C124.501 203.434 124.475 203.28 124.448 203.122C124.422 202.965 124.396 202.811 124.365 202.653C124.365 202.601 124.346 202.553 124.335 202.496C124.294 202.29 124.248 202.084 124.199 201.878C124.15 201.672 124.12 201.544 124.074 201.382C124.074 201.308 124.037 201.233 124.014 201.163C123.991 201.093 123.95 200.926 123.916 200.808L123.848 200.58C123.818 200.479 123.787 200.374 123.753 200.273C123.697 200.089 123.636 199.909 123.576 199.725C123.515 199.541 123.451 199.361 123.387 199.182C123.258 198.814 123.119 198.45 122.979 198.082C122.431 196.661 121.815 195.263 121.249 193.878C120.945 193.153 120.675 192.41 120.44 191.651L120.368 191.761C120.254 191.949 120.152 192.147 120.062 192.352C120.062 195.579 117.085 199.528 117.085 199.528L114.089 194.794L111.468 199.177C111.09 199.397 110.712 200.142 110.417 201.203C110.334 201.487 110.255 201.803 110.179 202.132C110.126 202.355 110.077 202.57 110.032 202.82C110.005 202.938 109.983 203.057 109.96 203.179L109.892 203.552V203.609C109.847 203.863 109.801 204.126 109.76 204.394C109.718 204.661 109.669 204.968 109.628 205.27C109.597 205.46 109.571 205.649 109.548 205.836C109.495 206.2 109.45 206.568 109.405 206.936C109.378 207.151 109.352 207.374 109.329 207.572L109.239 208.387C109.431 209.058 109.647 209.702 109.869 210.377C110.011 210.732 110.095 211.114 110.115 211.504C114.763 212.941 119.654 212.941 124.301 211.504C124.3 211.491 124.3 211.477 124.301 211.464C124.231 211.097 124.201 210.722 124.21 210.346C124.287 209.293 124.413 208.245 124.588 207.208C124.644 206.696 124.668 206.181 124.66 205.665V205.481C124.649 205.314 124.645 205.165 124.641 205.021V205.016ZM124.641 205.016C124.641 204.854 124.641 204.687 124.615 204.525C124.588 204.363 124.592 204.218 124.573 204.061C124.554 203.903 124.539 203.749 124.52 203.592C124.501 203.434 124.475 203.28 124.448 203.122C124.422 202.965 124.396 202.811 124.365 202.653C124.365 202.601 124.346 202.553 124.335 202.496C124.294 202.29 124.248 202.084 124.199 201.878C124.15 201.672 124.12 201.544 124.074 201.382C124.074 201.308 124.037 201.233 124.014 201.163C123.991 201.093 123.95 200.926 123.916 200.808L123.848 200.58C123.818 200.479 123.787 200.374 123.753 200.273C123.697 200.089 123.636 199.909 123.576 199.725C123.515 199.541 123.451 199.361 123.387 199.182C123.258 198.814 123.119 198.45 122.979 198.082C122.431 196.661 121.815 195.263 121.249 193.878C120.945 193.153 120.675 192.41 120.44 191.651L120.368 191.761C120.254 191.949 120.152 192.147 120.062 192.352C120.062 195.579 117.085 199.528 117.085 199.528L114.089 194.794L111.468 199.177C111.09 199.397 110.712 200.142 110.417 201.203C110.334 201.487 110.255 201.803 110.179 202.132C110.126 202.355 110.077 202.57 110.032 202.82C110.005 202.938 109.983 203.057 109.96 203.179L109.892 203.552V203.609C109.847 203.863 109.801 204.126 109.76 204.394C109.718 204.661 109.669 204.968 109.628 205.27C109.597 205.46 109.571 205.649 109.548 205.836C109.495 206.2 109.45 206.568 109.405 206.936C109.378 207.151 109.352 207.374 109.329 207.572L109.239 208.387C109.431 209.058 109.647 209.702 109.869 210.377C110.011 210.732 110.095 211.114 110.115 211.504C114.763 212.941 119.654 212.941 124.301 211.504C124.3 211.491 124.3 211.477 124.301 211.464C124.231 211.097 124.201 210.722 124.21 210.346C124.287 209.293 124.413 208.245 124.588 207.208C124.644 206.696 124.668 206.181 124.66 205.665V205.481C124.649 205.314 124.645 205.165 124.641 205.021V205.016ZM124.641 205.016C124.641 204.854 124.641 204.687 124.615 204.525C124.588 204.363 124.592 204.218 124.573 204.061C124.554 203.903 124.539 203.749 124.52 203.592C124.501 203.434 124.475 203.28 124.448 203.122C124.422 202.965 124.396 202.811 124.365 202.653C124.365 202.601 124.346 202.553 124.335 202.496C124.294 202.29 124.248 202.084 124.199 201.878C124.15 201.672 124.12 201.544 124.074 201.382C124.074 201.308 124.037 201.233 124.014 201.163C123.991 201.093 123.95 200.926 123.916 200.808L123.848 200.58C123.818 200.479 123.787 200.374 123.753 200.273C123.697 200.089 123.636 199.909 123.576 199.725C123.515 199.541 123.451 199.361 123.387 199.182C123.258 198.814 123.119 198.45 122.979 198.082C122.431 196.661 121.815 195.263 121.249 193.878C120.945 193.153 120.675 192.41 120.44 191.651L120.368 191.761C120.254 191.949 120.152 192.147 120.062 192.352C120.062 195.579 117.085 199.528 117.085 199.528L114.089 194.794L111.468 199.177C111.09 199.397 110.712 200.142 110.417 201.203C110.334 201.487 110.255 201.803 110.179 202.132C110.126 202.355 110.077 202.57 110.032 202.82C110.005 202.938 109.983 203.057 109.96 203.179L109.892 203.552V203.609C109.847 203.863 109.801 204.126 109.76 204.394C109.718 204.661 109.669 204.968 109.628 205.27C109.597 205.46 109.571 205.649 109.548 205.836C109.495 206.2 109.45 206.568 109.405 206.936C109.378 207.151 109.352 207.374 109.329 207.572L109.239 208.387C109.431 209.058 109.647 209.702 109.869 210.377C110.011 210.732 110.095 211.114 110.115 211.504C114.763 212.941 119.654 212.941 124.301 211.504C124.3 211.491 124.3 211.477 124.301 211.464C124.231 211.097 124.201 210.722 124.21 210.346C124.287 209.293 124.413 208.245 124.588 207.208C124.644 206.696 124.668 206.181 124.66 205.665V205.481C124.649 205.314 124.645 205.165 124.641 205.021V205.016Z" fill="url(#paint1_linear_1_18)"/>
<path opacity="0.5" d="M124.778 174.442H107.399V188.03H124.778V174.442Z" fill="#493545"/>
<path opacity="0.5" d="M127.662 189.428L120.39 201.316L112.789 200.549C112.789 200.549 102.872 201.312 109.483 192.497C112.66 188.258 113.699 184.725 113.922 182.204C114.164 179.478 113.45 177.926 113.45 177.926L121.712 176.778C121.339 178.07 121.292 179.458 121.576 180.78C122.611 185.759 127.662 189.428 127.662 189.428Z" fill="#C77485"/>
<path opacity="0.1" d="M121.572 180.767C120.494 181.714 119.233 182.34 117.899 182.589C116.564 182.838 115.197 182.703 113.918 182.196C114.16 179.47 113.446 177.918 113.446 177.918L121.708 176.77C121.336 178.06 121.289 179.447 121.572 180.767Z" fill="black"/>
<path opacity="0.5" d="M116.59 182.327C121.154 182.327 124.853 178.035 124.853 172.741C124.853 167.446 121.154 163.154 116.59 163.154C112.027 163.154 108.328 167.446 108.328 172.741C108.328 178.035 112.027 182.327 116.59 182.327Z" fill="#C77485"/>
<path opacity="0.1" d="M127.361 189.919L127.169 189.043L127.002 188.271L126.757 187.131L126.712 186.921L126.674 186.746C126.674 186.746 126.87 186.058 125.574 186.281L125.333 186.329C125.129 186.377 124.891 186.443 124.619 186.531L124.373 186.619L124.048 186.737C123.019 187.126 122.081 187.782 121.305 188.657C120.957 189.043 120.649 189.476 120.387 189.946C120.361 189.989 120.342 190.029 120.319 190.064C120.23 190.227 120.15 190.397 120.081 190.572C120.081 194.027 117.104 198.243 117.104 198.243L114.199 193.373L114.142 193.277L113.451 192.111L113.205 191.734L113.122 191.603L111.611 189.249L111.233 188.661L111.109 188.464L110.924 188.179L110.489 187.508L108.789 188.661L106.522 190.195L105.2 200.168V200.444L105.242 201.268L105.517 206.686V206.761L105.034 209.005L105.106 209.049C106.247 209.763 107.434 210.373 108.657 210.872L108.978 211.004C109.356 211.148 109.711 211.28 110.081 211.407C110.095 211.472 110.105 211.538 110.111 211.604C110.111 211.543 110.111 211.477 110.111 211.416C114.747 212.953 119.662 212.953 124.297 211.416L124.384 211.385C124.6 211.315 124.819 211.24 125.03 211.157L125.374 211.03C126.306 210.668 127.22 210.244 128.109 209.759L128.427 201.912L128.653 196.253V195.929L127.361 189.919Z" fill="black"/>
<path opacity="0.5" d="M124.64 204.495C124.64 204.32 124.64 204.144 124.614 203.969C124.588 203.794 124.591 203.64 124.572 203.474C124.554 203.307 124.538 203.141 124.52 202.974C124.501 202.807 124.474 202.641 124.448 202.474C124.421 202.308 124.395 202.141 124.365 201.975C124.365 201.918 124.346 201.865 124.334 201.808C124.293 201.589 124.248 201.37 124.198 201.146C124.149 200.922 124.119 200.791 124.074 200.616C124.074 200.537 124.036 200.458 124.013 200.383C123.991 200.309 123.949 200.129 123.915 200.002L123.847 199.756C123.817 199.647 123.787 199.537 123.753 199.428C123.696 199.23 123.636 199.038 123.575 198.84C123.515 198.643 123.45 198.45 123.386 198.257C123.258 197.863 123.118 197.473 122.978 197.083C122.43 195.566 121.815 194.071 121.248 192.59C120.943 191.813 120.674 191.018 120.439 190.209L120.368 190.328C120.253 190.529 120.151 190.74 120.062 190.959C120.062 194.409 117.085 198.63 117.085 198.63L114.089 193.567L111.467 198.244C111.089 198.477 110.711 199.274 110.417 200.41C110.334 200.716 110.254 201.05 110.179 201.405C110.126 201.641 110.077 201.891 110.031 202.141C110.005 202.268 109.982 202.395 109.959 202.527L109.891 202.926V202.987C109.846 203.259 109.801 203.539 109.759 203.824C109.718 204.109 109.669 204.438 109.627 204.749C109.597 204.951 109.57 205.153 109.548 205.354C109.495 205.744 109.449 206.139 109.404 206.529C109.378 206.757 109.351 206.967 109.329 207.208L109.238 208.085C109.431 208.804 109.646 209.514 109.869 210.211C110.011 210.593 110.094 211.001 110.114 211.416C114.75 212.954 119.665 212.954 124.3 211.416C124.299 211.402 124.299 211.387 124.3 211.373C124.231 210.979 124.2 210.578 124.21 210.176V210.176C124.286 209.051 124.412 207.932 124.588 206.823C124.643 206.276 124.667 205.725 124.659 205.174V204.977C124.648 204.811 124.644 204.653 124.64 204.495ZM124.64 204.495C124.64 204.32 124.64 204.144 124.614 203.969C124.588 203.794 124.591 203.64 124.572 203.474C124.554 203.307 124.538 203.141 124.52 202.974C124.501 202.807 124.474 202.641 124.448 202.474C124.421 202.308 124.395 202.141 124.365 201.975C124.365 201.918 124.346 201.865 124.334 201.808C124.293 201.589 124.248 201.37 124.198 201.146C124.149 200.922 124.119 200.791 124.074 200.616C124.074 200.537 124.036 200.458 124.013 200.383C123.991 200.309 123.949 200.129 123.915 200.002L123.847 199.756C123.817 199.647 123.787 199.537 123.753 199.428C123.696 199.23 123.636 199.038 123.575 198.84C123.515 198.643 123.45 198.45 123.386 198.257C123.258 197.863 123.118 197.473 122.978 197.083C122.43 195.566 121.815 194.071 121.248 192.59C120.943 191.813 120.674 191.018 120.439 190.209L120.368 190.328C120.253 190.529 120.151 190.74 120.062 190.959C120.062 194.409 117.085 198.63 117.085 198.63L114.089 193.567L111.467 198.244C111.089 198.477 110.711 199.274 110.417 200.41C110.334 200.716 110.254 201.05 110.179 201.405C110.126 201.641 110.077 201.891 110.031 202.141C110.005 202.268 109.982 202.395 109.959 202.527L109.891 202.926V202.987C109.846 203.259 109.801 203.539 109.759 203.824C109.718 204.109 109.669 204.438 109.627 204.749C109.597 204.951 109.57 205.153 109.548 205.354C109.495 205.744 109.449 206.139 109.404 206.529C109.378 206.757 109.351 206.967 109.329 207.208L109.238 208.085C109.431 208.804 109.646 209.514 109.869 210.211C110.011 210.593 110.094 211.001 110.114 211.416C114.75 212.954 119.665 212.954 124.3 211.416C124.299 211.402 124.299 211.387 124.3 211.373C124.231 210.979 124.2 210.578 124.21 210.176V210.176C124.286 209.051 124.412 207.932 124.588 206.823C124.643 206.276 124.667 205.725 124.659 205.174V204.977C124.648 204.811 124.644 204.653 124.64 204.495ZM124.64 204.495C124.64 204.32 124.64 204.144 124.614 203.969C124.588 203.794 124.591 203.64 124.572 203.474C124.554 203.307 124.538 203.141 124.52 202.974C124.501 202.807 124.474 202.641 124.448 202.474C124.421 202.308 124.395 202.141 124.365 201.975C124.365 201.918 124.346 201.865 124.334 201.808C124.293 201.589 124.248 201.37 124.198 201.146C124.149 200.922 124.119 200.791 124.074 200.616C124.074 200.537 124.036 200.458 124.013 200.383C123.991 200.309 123.949 200.129 123.915 200.002L123.847 199.756C123.817 199.647 123.787 199.537 123.753 199.428C123.696 199.23 123.636 199.038 123.575 198.84C123.515 198.643 123.45 198.45 123.386 198.257C123.258 197.863 123.118 197.473 122.978 197.083C122.43 195.566 121.815 194.071 121.248 192.59C120.943 191.813 120.674 191.018 120.439 190.209L120.368 190.328C120.253 190.529 120.151 190.74 120.062 190.959C120.062 194.409 117.085 198.63 117.085 198.63L114.089 193.567L111.467 198.244C111.089 198.477 110.711 199.274 110.417 200.41C110.334 200.716 110.254 201.05 110.179 201.405C110.126 201.641 110.077 201.891 110.031 202.141C110.005 202.268 109.982 202.395 109.959 202.527L109.891 202.926V202.987C109.846 203.259 109.801 203.539 109.759 203.824C109.718 204.109 109.669 204.438 109.627 204.749C109.597 204.951 109.57 205.153 109.548 205.354C109.495 205.744 109.449 206.139 109.404 206.529C109.378 206.757 109.351 206.967 109.329 207.208L109.238 208.085C109.431 208.804 109.646 209.514 109.869 210.211C110.011 210.593 110.094 211.001 110.114 211.416C114.75 212.954 119.665 212.954 124.3 211.416C124.299 211.402 124.299 211.387 124.3 211.373C124.231 210.979 124.2 210.578 124.21 210.176V210.176C124.286 209.051 124.412 207.932 124.588 206.823C124.643 206.276 124.667 205.725 124.659 205.174V204.977C124.648 204.811 124.644 204.653 124.64 204.495ZM128.645 196.267L127.296 190.021L127.066 188.951L127.002 188.658L126.673 187.132C126.674 187.119 126.674 187.106 126.673 187.093C126.681 187.025 126.672 186.957 126.647 186.895C126.597 186.782 126.473 186.663 126.182 186.632C126.071 186.623 125.96 186.623 125.849 186.632V186.632C125.521 186.67 125.196 186.741 124.878 186.843C124.724 186.891 124.557 186.944 124.38 187.009L124.055 187.128H124.025C123.155 187.459 122.347 187.98 121.645 188.662C121.181 189.111 120.774 189.633 120.436 190.214L120.364 190.332C120.249 190.534 120.147 190.745 120.058 190.963C120.058 194.413 117.081 198.634 117.081 198.634L114.085 193.571L113.915 193.287L113.885 193.238L113.45 192.498L113.122 191.989L113.035 191.858L111.486 189.46L110.995 188.684V188.658L110.825 188.39L110.5 187.891L109.366 188.658L106.533 190.573L105.226 200.44V200.546L105.264 201.264L105.543 206.757V207.068L105.116 209.045C106.257 209.759 107.445 210.369 108.667 210.869L108.989 211C109.366 211.145 109.721 211.276 110.092 211.403C110.105 211.468 110.116 211.534 110.122 211.601C110.122 211.539 110.122 211.473 110.122 211.412C114.758 212.949 119.672 212.949 124.308 211.412L124.395 211.381C124.61 211.311 124.829 211.237 125.041 211.153L125.385 211.026C126.317 210.665 127.23 210.24 128.12 209.755L128.433 201.918L128.66 196.32L128.645 196.267ZM110.065 211.403C110.079 211.468 110.089 211.534 110.095 211.601C110.095 211.539 110.095 211.473 110.095 211.412L110.065 211.403ZM124.64 204.495C124.64 204.32 124.64 204.144 124.614 203.969C124.588 203.794 124.591 203.64 124.572 203.474C124.554 203.307 124.538 203.141 124.52 202.974C124.501 202.807 124.474 202.641 124.448 202.474C124.421 202.308 124.395 202.141 124.365 201.975C124.365 201.918 124.346 201.865 124.334 201.808C124.293 201.589 124.248 201.37 124.198 201.146C124.149 200.922 124.119 200.791 124.074 200.616C124.074 200.537 124.036 200.458 124.013 200.383C123.991 200.309 123.949 200.129 123.915 200.002L123.847 199.756C123.817 199.647 123.787 199.537 123.753 199.428C123.696 199.23 123.636 199.038 123.575 198.84C123.515 198.643 123.45 198.45 123.386 198.257C123.258 197.863 123.118 197.473 122.978 197.083C122.43 195.566 121.815 194.071 121.248 192.59C120.943 191.813 120.674 191.018 120.439 190.209L120.368 190.328C120.253 190.529 120.151 190.74 120.062 190.959C120.062 194.409 117.085 198.63 117.085 198.63L114.089 193.567L111.467 198.244C111.089 198.477 110.711 199.274 110.417 200.41C110.334 200.716 110.254 201.05 110.179 201.405C110.126 201.641 110.077 201.891 110.031 202.141C110.005 202.268 109.982 202.395 109.959 202.527L109.891 202.926V202.987C109.846 203.259 109.801 203.539 109.759 203.824C109.718 204.109 109.669 204.438 109.627 204.749C109.597 204.951 109.57 205.153 109.548 205.354C109.495 205.744 109.449 206.139 109.404 206.529C109.378 206.757 109.351 206.967 109.329 207.208L109.238 208.085C109.431 208.804 109.646 209.514 109.869 210.211C110.011 210.593 110.094 211.001 110.114 211.416C114.75 212.954 119.665 212.954 124.3 211.416C124.299 211.402 124.299 211.387 124.3 211.373C124.231 210.979 124.2 210.578 124.21 210.176V210.176C124.286 209.051 124.412 207.932 124.588 206.823C124.643 206.276 124.667 205.725 124.659 205.174V204.977C124.648 204.811 124.644 204.653 124.64 204.495ZM124.64 204.495C124.64 204.32 124.64 204.144 124.614 203.969C124.588 203.794 124.591 203.64 124.572 203.474C124.554 203.307 124.538 203.141 124.52 202.974C124.501 202.807 124.474 202.641 124.448 202.474C124.421 202.308 124.395 202.141 124.365 201.975C124.365 201.918 124.346 201.865 124.334 201.808C124.293 201.589 124.248 201.37 124.198 201.146C124.149 200.922 124.119 200.791 124.074 200.616C124.074 200.537 124.036 200.458 124.013 200.383C123.991 200.309 123.949 200.129 123.915 200.002L123.847 199.756C123.817 199.647 123.787 199.537 123.753 199.428C123.696 199.23 123.636 199.038 123.575 198.84C123.515 198.643 123.45 198.45 123.386 198.257C123.258 197.863 123.118 197.473 122.978 197.083C122.43 195.566 121.815 194.071 121.248 192.59C120.943 191.813 120.674 191.018 120.439 190.209L120.368 190.328C120.253 190.529 120.151 190.74 120.062 190.959C120.062 194.409 117.085 198.63 117.085 198.63L114.089 193.567L111.467 198.244C111.089 198.477 110.711 199.274 110.417 200.41C110.334 200.716 110.254 201.05 110.179 201.405C110.126 201.641 110.077 201.891 110.031 202.141C110.005 202.268 109.982 202.395 109.959 202.527L109.891 202.926V202.987C109.846 203.259 109.801 203.539 109.759 203.824C109.718 204.109 109.669 204.438 109.627 204.749C109.597 204.951 109.57 205.153 109.548 205.354C109.495 205.744 109.449 206.139 109.404 206.529C109.378 206.757 109.351 206.967 109.329 207.208L109.238 208.085C109.431 208.804 109.646 209.514 109.869 210.211C110.011 210.593 110.094 211.001 110.114 211.416C114.75 212.954 119.665 212.954 124.3 211.416C124.299 211.402 124.299 211.387 124.3 211.373C124.231 210.979 124.2 210.578 124.21 210.176V210.176C124.286 209.051 124.412 207.932 124.588 206.823C124.643 206.276 124.667 205.725 124.659 205.174V204.977C124.648 204.811 124.644 204.653 124.64 204.495ZM124.64 204.495C124.64 204.32 124.64 204.144 124.614 203.969C124.588 203.794 124.591 203.64 124.572 203.474C124.554 203.307 124.538 203.141 124.52 202.974C124.501 202.807 124.474 202.641 124.448 202.474C124.421 202.308 124.395 202.141 124.365 201.975C124.365 201.918 124.346 201.865 124.334 201.808C124.293 201.589 124.248 201.37 124.198 201.146C124.149 200.922 124.119 200.791 124.074 200.616C124.074 200.537 124.036 200.458 124.013 200.383C123.991 200.309 123.949 200.129 123.915 200.002L123.847 199.756C123.817 199.647 123.787 199.537 123.753 199.428C123.696 199.23 123.636 199.038 123.575 198.84C123.515 198.643 123.45 198.45 123.386 198.257C123.258 197.863 123.118 197.473 122.978 197.083C122.43 195.566 121.815 194.071 121.248 192.59C120.943 191.813 120.674 191.018 120.439 190.209L120.368 190.328C120.253 190.529 120.151 190.74 120.062 190.959C120.062 194.409 117.085 198.63 117.085 198.63L114.089 193.567L111.467 198.244C111.089 198.477 110.711 199.274 110.417 200.41C110.334 200.716 110.254 201.05 110.179 201.405C110.126 201.641 110.077 201.891 110.031 202.141C110.005 202.268 109.982 202.395 109.959 202.527L109.891 202.926V202.987C109.846 203.259 109.801 203.539 109.759 203.824C109.718 204.109 109.669 204.438 109.627 204.749C109.597 204.951 109.57 205.153 109.548 205.354C109.495 205.744 109.449 206.139 109.404 206.529C109.378 206.757 109.351 206.967 109.329 207.208L109.238 208.085C109.431 208.804 109.646 209.514 109.869 210.211C110.011 210.593 110.094 211.001 110.114 211.416C114.75 212.954 119.665 212.954 124.3 211.416C124.299 211.402 124.299 211.387 124.3 211.373C124.231 210.979 124.2 210.578 124.21 210.176V210.176C124.286 209.051 124.412 207.932 124.588 206.823C124.643 206.276 124.667 205.725 124.659 205.174V204.977C124.648 204.811 124.644 204.653 124.64 204.495ZM124.64 204.495C124.64 204.32 124.64 204.144 124.614 203.969C124.588 203.794 124.591 203.64 124.572 203.474C124.554 203.307 124.538 203.141 124.52 202.974C124.501 202.807 124.474 202.641 124.448 202.474C124.421 202.308 124.395 202.141 124.365 201.975C124.365 201.918 124.346 201.865 124.334 201.808C124.293 201.589 124.248 201.37 124.198 201.146C124.149 200.922 124.119 200.791 124.074 200.616C124.074 200.537 124.036 200.458 124.013 200.383C123.991 200.309 123.949 200.129 123.915 200.002L123.847 199.756C123.817 199.647 123.787 199.537 123.753 199.428C123.696 199.23 123.636 199.038 123.575 198.84C123.515 198.643 123.45 198.45 123.386 198.257C123.258 197.863 123.118 197.473 122.978 197.083C122.43 195.566 121.815 194.071 121.248 192.59C120.943 191.813 120.674 191.018 120.439 190.209L120.368 190.328C120.253 190.529 120.151 190.74 120.062 190.959C120.062 194.409 117.085 198.63 117.085 198.63L114.089 193.567L111.467 198.244C111.089 198.477 110.711 199.274 110.417 200.41C110.334 200.716 110.254 201.05 110.179 201.405C110.126 201.641 110.077 201.891 110.031 202.141C110.005 202.268 109.982 202.395 109.959 202.527L109.891 202.926V202.987C109.846 203.259 109.801 203.539 109.759 203.824C109.718 204.109 109.669 204.438 109.627 204.749C109.597 204.951 109.57 205.153 109.548 205.354C109.495 205.744 109.449 206.139 109.404 206.529C109.378 206.757 109.351 206.967 109.329 207.208L109.238 208.085C109.431 208.804 109.646 209.514 109.869 210.211C110.011 210.593 110.094 211.001 110.114 211.416C114.75 212.954 119.665 212.954 124.3 211.416C124.299 211.402 124.299 211.387 124.3 211.373C124.231 210.979 124.2 210.578 124.21 210.176V210.176C124.286 209.051 124.412 207.932 124.588 206.823C124.643 206.276 124.667 205.725 124.659 205.174V204.977C124.648 204.811 124.644 204.653 124.64 204.495ZM124.64 204.495C124.64 204.32 124.64 204.144 124.614 203.969C124.588 203.794 124.591 203.64 124.572 203.474C124.554 203.307 124.538 203.141 124.52 202.974C124.501 202.807 124.474 202.641 124.448 202.474C124.421 202.308 124.395 202.141 124.365 201.975C124.365 201.918 124.346 201.865 124.334 201.808C124.293 201.589 124.248 201.37 124.198 201.146C124.149 200.922 124.119 200.791 124.074 200.616C124.074 200.537 124.036 200.458 124.013 200.383C123.991 200.309 123.949 200.129 123.915 200.002L123.847 199.756C123.817 199.647 123.787 199.537 123.753 199.428C123.696 199.23 123.636 199.038 123.575 198.84C123.515 198.643 123.45 198.45 123.386 198.257C123.258 197.863 123.118 197.473 122.978 197.083C122.43 195.566 121.815 194.071 121.248 192.59C120.943 191.813 120.674 191.018 120.439 190.209L120.368 190.328C120.253 190.529 120.151 190.74 120.062 190.959C120.062 194.409 117.085 198.63 117.085 198.63L114.089 193.567L111.467 198.244C111.089 198.477 110.711 199.274 110.417 200.41C110.334 200.716 110.254 201.05 110.179 201.405C110.126 201.641 110.077 201.891 110.031 202.141C110.005 202.268 109.982 202.395 109.959 202.527L109.891 202.926V202.987C109.846 203.259 109.801 203.539 109.759 203.824C109.718 204.109 109.669 204.438 109.627 204.749C109.597 204.951 109.57 205.153 109.548 205.354C109.495 205.744 109.449 206.139 109.404 206.529C109.378 206.757 109.351 206.967 109.329 207.208L109.238 208.085C109.431 208.804 109.646 209.514 109.869 210.211C110.011 210.593 110.094 211.001 110.114 211.416C114.75 212.954 119.665 212.954 124.3 211.416C124.299 211.402 124.299 211.387 124.3 211.373C124.231 210.979 124.2 210.578 124.21 210.176V210.176C124.286 209.051 124.412 207.932 124.588 206.823C124.643 206.276 124.667 205.725 124.659 205.174V204.977C124.648 204.811 124.644 204.653 124.64 204.495ZM124.64 204.495C124.64 204.32 124.64 204.144 124.614 203.969C124.588 203.794 124.591 203.64 124.572 203.474C124.554 203.307 124.538 203.141 124.52 202.974C124.501 202.807 124.474 202.641 124.448 202.474C124.421 202.308 124.395 202.141 124.365 201.975C124.365 201.918 124.346 201.865 124.334 201.808C124.293 201.589 124.248 201.37 124.198 201.146C124.149 200.922 124.119 200.791 124.074 200.616C124.074 200.537 124.036 200.458 124.013 200.383C123.991 200.309 123.949 200.129 123.915 200.002L123.847 199.756C123.817 199.647 123.787 199.537 123.753 199.428C123.696 199.23 123.636 199.038 123.575 198.84C123.515 198.643 123.45 198.45 123.386 198.257C123.258 197.863 123.118 197.473 122.978 197.083C122.43 195.566 121.815 194.071 121.248 192.59C120.943 191.813 120.674 191.018 120.439 190.209L120.368 190.328C120.253 190.529 120.151 190.74 120.062 190.959C120.062 194.409 117.085 198.63 117.085 198.63L114.089 193.567L111.467 198.244C111.089 198.477 110.711 199.274 110.417 200.41C110.334 200.716 110.254 201.05 110.179 201.405C110.126 201.641 110.077 201.891 110.031 202.141C110.005 202.268 109.982 202.395 109.959 202.527L109.891 202.926V202.987C109.846 203.259 109.801 203.539 109.759 203.824C109.718 204.109 109.669 204.438 109.627 204.749C109.597 204.951 109.57 205.153 109.548 205.354C109.495 205.744 109.449 206.139 109.404 206.529C109.378 206.757 109.351 206.967 109.329 207.208L109.238 208.085C109.431 208.804 109.646 209.514 109.869 210.211C110.011 210.593 110.094 211.001 110.114 211.416C114.75 212.954 119.665 212.954 124.3 211.416C124.299 211.402 124.299 211.387 124.3 211.373C124.231 210.979 124.2 210.578 124.21 210.176V210.176C124.286 209.051 124.412 207.932 124.588 206.823C124.643 206.276 124.667 205.725 124.659 205.174V204.977C124.648 204.811 124.644 204.653 124.64 204.495ZM124.64 204.495C124.64 204.32 124.64 204.144 124.614 203.969C124.588 203.794 124.591 203.64 124.572 203.474C124.554 203.307 124.538 203.141 124.52 202.974C124.501 202.807 124.474 202.641 124.448 202.474C124.421 202.308 124.395 202.141 124.365 201.975C124.365 201.918 124.346 201.865 124.334 201.808C124.293 201.589 124.248 201.37 124.198 201.146C124.149 200.922 124.119 200.791 124.074 200.616C124.074 200.537 124.036 200.458 124.013 200.383C123.991 200.309 123.949 200.129 123.915 200.002L123.847 199.756C123.817 199.647 123.787 199.537 123.753 199.428C123.696 199.23 123.636 199.038 123.575 198.84C123.515 198.643 123.45 198.45 123.386 198.257C123.258 197.863 123.118 197.473 122.978 197.083C122.43 195.566 121.815 194.071 121.248 192.59C120.943 191.813 120.674 191.018 120.439 190.209L120.368 190.328C120.253 190.529 120.151 190.74 120.062 190.959C120.062 194.409 117.085 198.63 117.085 198.63L114.089 193.567L111.467 198.244C111.089 198.477 110.711 199.274 110.417 200.41C110.334 200.716 110.254 201.05 110.179 201.405C110.126 201.641 110.077 201.891 110.031 202.141C110.005 202.268 109.982 202.395 109.959 202.527L109.891 202.926V202.987C109.846 203.259 109.801 203.539 109.759 203.824C109.718 204.109 109.669 204.438 109.627 204.749C109.597 204.951 109.57 205.153 109.548 205.354C109.495 205.744 109.449 206.139 109.404 206.529C109.378 206.757 109.351 206.967 109.329 207.208L109.238 208.085C109.431 208.804 109.646 209.514 109.869 210.211C110.011 210.593 110.094 211.001 110.114 211.416C114.75 212.954 119.665 212.954 124.3 211.416C124.299 211.402 124.299 211.387 124.3 211.373C124.231 210.979 124.2 210.578 124.21 210.176V210.176C124.286 209.051 124.412 207.932 124.588 206.823C124.643 206.276 124.667 205.725 124.659 205.174V204.977C124.648 204.811 124.644 204.653 124.64 204.495ZM124.64 204.495C124.64 204.32 124.64 204.144 124.614 203.969C124.588 203.794 124.591 203.64 124.572 203.474C124.554 203.307 124.538 203.141 124.52 202.974C124.501 202.807 124.474 202.641 124.448 202.474C124.421 202.308 124.395 202.141 124.365 201.975C124.365 201.918 124.346 201.865 124.334 201.808C124.293 201.589 124.248 201.37 124.198 201.146C124.149 200.922 124.119 200.791 124.074 200.616C124.074 200.537 124.036 200.458 124.013 200.383C123.991 200.309 123.949 200.129 123.915 200.002L123.847 199.756C123.817 199.647 123.787 199.537 123.753 199.428C123.696 199.23 123.636 199.038 123.575 198.84C123.515 198.643 123.45 198.45 123.386 198.257C123.258 197.863 123.118 197.473 122.978 197.083C122.43 195.566 121.815 194.071 121.248 192.59C120.943 191.813 120.674 191.018 120.439 190.209L120.368 190.328C120.253 190.529 120.151 190.74 120.062 190.959C120.062 194.409 117.085 198.63 117.085 198.63L114.089 193.567L111.467 198.244C111.089 198.477 110.711 199.274 110.417 200.41C110.334 200.716 110.254 201.05 110.179 201.405C110.126 201.641 110.077 201.891 110.031 202.141C110.005 202.268 109.982 202.395 109.959 202.527L109.891 202.926V202.987C109.846 203.259 109.801 203.539 109.759 203.824C109.718 204.109 109.669 204.438 109.627 204.749C109.597 204.951 109.57 205.153 109.548 205.354C109.495 205.744 109.449 206.139 109.404 206.529C109.378 206.757 109.351 206.967 109.329 207.208L109.238 208.085C109.431 208.804 109.646 209.514 109.869 210.211C110.011 210.593 110.094 211.001 110.114 211.416C114.75 212.954 119.665 212.954 124.3 211.416C124.299 211.402 124.299 211.387 124.3 211.373C124.231 210.979 124.2 210.578 124.21 210.176V210.176C124.286 209.051 124.412 207.932 124.588 206.823C124.643 206.276 124.667 205.725 124.659 205.174V204.977C124.648 204.811 124.644 204.653 124.64 204.495Z" fill="white"/>
<path opacity="0.1" d="M114.143 193.273L113.89 193.234C113.508 193.174 113.129 193.086 112.756 192.971L112.617 192.927C111.695 192.624 110.686 192.081 110.459 191.125C110.392 190.817 110.4 190.494 110.482 190.191C110.609 189.67 110.781 189.165 110.996 188.683V188.657C111.024 188.59 111.056 188.524 111.09 188.46C111.402 187.753 111.873 187.158 112.454 186.737L112.001 186.821L108.162 187.544L102.212 188.657C102.212 188.657 101.154 188.412 99.7149 193.014C99.7149 193.071 99.6809 193.124 99.6658 193.185C99.3183 194.312 98.9518 195.719 98.574 197.477C98.3133 198.695 98.0753 199.892 97.8562 201.054C97.792 201.404 97.7278 201.751 97.6673 202.093C98.3485 203.024 99.0817 203.903 99.8623 204.723L99.9869 204.859C101.516 206.465 103.205 207.853 105.019 208.992L105.091 209.036C106.232 209.75 107.419 210.36 108.642 210.859L108.963 210.991C109.031 210.18 109.107 209.281 109.198 208.361C109.198 208.269 109.198 208.177 109.228 208.085L109.318 207.208C109.341 206.984 109.368 206.77 109.394 206.529C109.439 206.138 109.485 205.744 109.538 205.354C109.56 205.152 109.587 204.951 109.617 204.749C109.658 204.438 109.704 204.126 109.749 203.824C109.794 203.522 109.836 203.259 109.881 202.987V202.925L109.949 202.527C109.972 202.395 109.995 202.268 110.021 202.141C110.066 201.891 110.116 201.641 110.168 201.404C110.244 201.049 110.323 200.716 110.406 200.409C110.709 199.274 111.06 198.476 111.457 198.244L114.079 193.567L114.188 193.369L114.237 193.282L114.143 193.273Z" fill="black"/>
<path opacity="0.1" d="M109.371 162.225C108.994 162.83 109.024 163.663 108.854 164.417C108.45 166.131 106.848 167.205 106.481 168.932C106.266 169.94 106.515 171.01 106.368 172.036C106.1 173.925 104.611 175.205 103.78 176.857C103.359 177.709 103.109 178.66 103.049 179.639C102.99 180.618 103.122 181.6 103.436 182.512C103.631 182.972 103.791 183.45 103.916 183.941C104.011 184.673 103.971 185.42 103.799 186.133C103.516 187.693 103.225 189.412 103.875 190.819C104.422 192.007 105.559 192.703 106.704 192.923C107.86 193.074 109.029 193.012 110.169 192.739C111.419 192.515 112.7 192.256 113.788 191.511L109.696 180.053C109.284 178.896 108.861 177.699 108.865 176.445C108.898 175.52 109.071 174.61 109.375 173.754C110.167 171.275 111.317 168.97 112.775 166.938C113.368 167.735 113.323 168.95 113.818 169.835C114.255 170.49 114.838 170.994 115.503 171.295C117.442 172.392 119.433 173.358 121.468 174.188C121.596 174.206 121.718 174.261 121.823 174.348C121.928 174.434 122.013 174.549 122.07 174.682C122.128 174.816 122.156 174.964 122.153 175.113C122.149 175.262 122.114 175.408 122.05 175.538L120.509 182.92C120.169 184.546 119.87 186.426 120.743 187.741C121.616 189.056 123.584 189.679 123.595 191.375C123.579 191.644 123.579 191.913 123.595 192.182C123.697 192.975 124.51 193.357 125.201 193.396C126.336 193.422 127.442 192.979 128.321 192.147C129.201 191.314 129.797 190.146 130.003 188.85C130.38 185.949 128.726 183.275 128.034 180.447C126.871 175.691 128.412 170.111 126.126 165.934C124.275 162.545 120.902 161.625 117.698 161.204C115.45 160.897 110.954 159.801 109.371 162.225Z" fill="black"/>
<path opacity="0.5" d="M109.371 161.787C108.994 162.392 109.024 163.225 108.854 163.979C108.45 165.693 106.848 166.767 106.481 168.494C106.266 169.502 106.515 170.571 106.368 171.597C106.1 173.486 104.611 174.766 103.78 176.419C103.359 177.27 103.109 178.221 103.049 179.201C102.99 180.18 103.122 181.162 103.436 182.074C103.631 182.533 103.791 183.011 103.916 183.503C104.011 184.235 103.971 184.982 103.799 185.694C103.516 187.255 103.225 188.973 103.875 190.38C104.422 191.568 105.559 192.265 106.704 192.484C107.86 192.636 109.029 192.574 110.169 192.3C111.419 192.077 112.7 191.818 113.788 191.073L109.696 179.614C109.284 178.457 108.861 177.261 108.865 176.007C108.898 175.082 109.071 174.171 109.375 173.315C110.167 170.836 111.317 168.531 112.775 166.499C113.368 167.297 113.323 168.511 113.818 169.397C114.255 170.051 114.838 170.556 115.503 170.856C117.442 171.954 119.433 172.92 121.468 173.749C121.596 173.768 121.718 173.823 121.823 173.909C121.928 173.995 122.013 174.11 122.07 174.244C122.128 174.377 122.156 174.525 122.153 174.675C122.149 174.824 122.114 174.97 122.05 175.1L120.509 182.481C120.169 184.108 119.87 185.988 120.743 187.303C121.616 188.618 123.584 189.241 123.595 190.937C123.579 191.205 123.579 191.475 123.595 191.744C123.697 192.537 124.51 192.918 125.201 192.958C126.336 192.984 127.442 192.541 128.321 191.708C129.201 190.876 129.797 189.707 130.003 188.412C130.38 185.51 128.726 182.836 128.034 180.009C126.871 175.253 128.412 169.673 126.126 165.495C124.275 162.107 120.902 161.186 117.698 160.766C115.45 160.459 110.954 159.363 109.371 161.787Z" fill="#493545"/>
</g>
<g opacity="0.5">
<path opacity="0.5" d="M107.046 279.197C107.08 280.666 106.219 281.919 105.535 283.142C104.851 284.365 104.345 286.035 105.048 287.258C105.278 287.662 105.626 287.973 105.834 288.394C106.563 289.862 105.35 291.55 104.908 293.163C104.398 295.026 104.991 297.108 106.064 298.62C107.137 300.132 108.618 301.154 110.114 302.052C113.259 303.997 116.636 305.392 120.133 306.19C121.961 306.581 123.911 306.756 125.626 305.905C126.816 305.272 127.788 304.193 128.386 302.842C128.984 301.49 129.174 299.945 128.924 298.454C128.49 296.148 127.035 294.294 126.28 292.115C126.103 291.687 126.018 291.217 126.03 290.743C126.094 289.915 126.642 289.266 127.069 288.595C128.14 286.769 128.577 284.541 128.293 282.358C127.995 280.174 127.274 278.097 126.185 276.282C125.796 275.53 125.282 274.874 124.674 274.353C123.85 273.709 122.83 273.525 121.848 273.363C117.745 272.696 113.495 271.969 109.358 271.723C108.051 271.644 107.092 271.943 106.446 273.363C105.459 275.48 106.997 277.071 107.046 279.197Z" fill="#444176"/>
<path opacity="0.5" d="M128.176 294.106L120.39 306.954L112.789 306.187C112.789 306.187 112.539 309.255 109.483 298.134C107.775 291.914 111.247 294.075 111.931 292.352C112.615 290.63 113.82 289.109 113.922 287.837C114.164 285.111 113.45 283.559 113.45 283.559L121.712 282.411C121.339 283.702 121.292 285.091 121.576 286.413C122.611 291.401 128.176 294.106 128.176 294.106Z" fill="#C77485"/>
<path opacity="0.5" d="M116.464 283.152C121.889 283.152 126.287 279.129 126.287 274.166C126.287 269.203 121.889 265.18 116.464 265.18C111.039 265.18 106.642 269.203 106.642 274.166C106.642 279.129 111.039 283.152 116.464 283.152Z" fill="#444176"/>
<path opacity="0.1" d="M121.572 286.408C120.495 287.355 119.233 287.981 117.899 288.23C116.564 288.479 115.197 288.344 113.918 287.837C114.16 285.111 113.446 283.559 113.446 283.559L121.708 282.411C121.336 283.701 121.289 285.088 121.572 286.408V286.408Z" fill="black"/>
<path opacity="0.5" d="M116.59 287.97C121.153 287.97 124.852 283.678 124.852 278.383C124.852 273.089 121.153 268.796 116.59 268.796C112.027 268.796 108.327 273.089 108.327 278.383C108.327 283.678 112.027 287.97 116.59 287.97Z" fill="#C77485"/>
<path opacity="0.1" d="M127.359 295.562L127.166 294.685L127 293.913L126.755 292.774L126.709 292.563L126.671 292.388C126.671 292.388 126.868 291.7 125.572 291.923L125.33 291.972C125.126 292.02 124.888 292.086 124.616 292.173L124.371 292.261L124.046 292.379C123.017 292.768 122.079 293.425 121.303 294.299C120.955 294.686 120.647 295.118 120.385 295.588C120.359 295.632 120.34 295.671 120.317 295.706C120.227 295.869 120.148 296.039 120.079 296.215C120.079 299.669 117.102 303.886 117.102 303.886L114.197 299.016L114.14 298.919L113.449 297.753L113.203 297.376L113.12 297.245L111.609 294.891L111.231 294.304L111.106 294.106L110.921 293.821L110.487 293.151L108.787 294.304L106.52 295.838L105.198 305.81V306.086L105.239 306.91L105.515 312.328V312.403L105.032 314.647L105.103 314.691C106.244 315.405 107.432 316.015 108.655 316.515L108.976 316.646C109.353 316.791 109.709 316.922 110.079 317.049C110.093 317.114 110.103 317.18 110.109 317.247C110.109 317.185 110.109 317.119 110.109 317.058C114.745 318.595 119.659 318.595 124.295 317.058L124.382 317.027C124.597 316.957 124.816 316.883 125.028 316.8L125.372 316.672C126.304 316.311 127.217 315.886 128.107 315.401L128.424 307.555L128.651 301.896V301.571L127.359 295.562Z" fill="black"/>
<path opacity="0.5" d="M124.641 310.136C124.641 309.961 124.641 309.785 124.614 309.61C124.588 309.435 124.592 309.281 124.573 309.115C124.554 308.948 124.539 308.782 124.52 308.615C124.501 308.448 124.474 308.282 124.448 308.115C124.422 307.949 124.395 307.782 124.365 307.616C124.365 307.559 124.346 307.506 124.335 307.449C124.293 307.23 124.248 307.011 124.199 306.787C124.15 306.564 124.119 306.432 124.074 306.257C124.074 306.178 124.036 306.099 124.014 306.024C123.991 305.95 123.949 305.77 123.915 305.643L123.847 305.398C123.817 305.288 123.787 305.178 123.753 305.069C123.696 304.872 123.636 304.679 123.575 304.481C123.515 304.284 123.451 304.091 123.386 303.898C123.258 303.504 123.118 303.114 122.978 302.724C122.431 301.207 121.815 299.712 121.248 298.231C120.944 297.454 120.674 296.659 120.44 295.851L120.368 295.969C120.253 296.17 120.151 296.381 120.062 296.6C120.062 300.05 117.085 304.271 117.085 304.271L114.089 299.208L111.467 303.885C111.089 304.118 110.712 304.915 110.417 306.051C110.334 306.358 110.254 306.691 110.179 307.046C110.126 307.282 110.077 307.532 110.031 307.782C110.005 307.909 109.982 308.036 109.96 308.168L109.892 308.567V308.628C109.846 308.9 109.801 309.18 109.759 309.465C109.718 309.75 109.669 310.079 109.627 310.39C109.597 310.592 109.571 310.794 109.548 310.995C109.495 311.385 109.45 311.78 109.404 312.17C109.378 312.398 109.351 312.608 109.329 312.849L109.238 313.726C109.431 314.445 109.646 315.155 109.869 315.852C110.011 316.234 110.095 316.642 110.115 317.057C114.751 318.595 119.665 318.595 124.301 317.057C124.299 317.043 124.299 317.028 124.301 317.014C124.231 316.62 124.2 316.219 124.21 315.817V315.817C124.286 314.692 124.412 313.573 124.588 312.464C124.644 311.917 124.668 311.366 124.66 310.815V310.618C124.648 310.452 124.644 310.294 124.641 310.136ZM124.641 310.136C124.641 309.961 124.641 309.785 124.614 309.61C124.588 309.435 124.592 309.281 124.573 309.115C124.554 308.948 124.539 308.782 124.52 308.615C124.501 308.448 124.474 308.282 124.448 308.115C124.422 307.949 124.395 307.782 124.365 307.616C124.365 307.559 124.346 307.506 124.335 307.449C124.293 307.23 124.248 307.011 124.199 306.787C124.15 306.564 124.119 306.432 124.074 306.257C124.074 306.178 124.036 306.099 124.014 306.024C123.991 305.95 123.949 305.77 123.915 305.643L123.847 305.398C123.817 305.288 123.787 305.178 123.753 305.069C123.696 304.872 123.636 304.679 123.575 304.481C123.515 304.284 123.451 304.091 123.386 303.898C123.258 303.504 123.118 303.114 122.978 302.724C122.431 301.207 121.815 299.712 121.248 298.231C120.944 297.454 120.674 296.659 120.44 295.851L120.368 295.969C120.253 296.17 120.151 296.381 120.062 296.6C120.062 300.05 117.085 304.271 117.085 304.271L114.089 299.208L111.467 303.885C111.089 304.118 110.712 304.915 110.417 306.051C110.334 306.358 110.254 306.691 110.179 307.046C110.126 307.282 110.077 307.532 110.031 307.782C110.005 307.909 109.982 308.036 109.96 308.168L109.892 308.567V308.628C109.846 308.9 109.801 309.18 109.759 309.465C109.718 309.75 109.669 310.079 109.627 310.39C109.597 310.592 109.571 310.794 109.548 310.995C109.495 311.385 109.45 311.78 109.404 312.17C109.378 312.398 109.351 312.608 109.329 312.849L109.238 313.726C109.431 314.445 109.646 315.155 109.869 315.852C110.011 316.234 110.095 316.642 110.115 317.057C114.751 318.595 119.665 318.595 124.301 317.057C124.299 317.043 124.299 317.028 124.301 317.014C124.231 316.62 124.2 316.219 124.21 315.817V315.817C124.286 314.692 124.412 313.573 124.588 312.464C124.644 311.917 124.668 311.366 124.66 310.815V310.618C124.648 310.452 124.644 310.294 124.641 310.136ZM124.641 310.136C124.641 309.961 124.641 309.785 124.614 309.61C124.588 309.435 124.592 309.281 124.573 309.115C124.554 308.948 124.539 308.782 124.52 308.615C124.501 308.448 124.474 308.282 124.448 308.115C124.422 307.949 124.395 307.782 124.365 307.616C124.365 307.559 124.346 307.506 124.335 307.449C124.293 307.23 124.248 307.011 124.199 306.787C124.15 306.564 124.119 306.432 124.074 306.257C124.074 306.178 124.036 306.099 124.014 306.024C123.991 305.95 123.949 305.77 123.915 305.643L123.847 305.398C123.817 305.288 123.787 305.178 123.753 305.069C123.696 304.872 123.636 304.679 123.575 304.481C123.515 304.284 123.451 304.091 123.386 303.898C123.258 303.504 123.118 303.114 122.978 302.724C122.431 301.207 121.815 299.712 121.248 298.231C120.944 297.454 120.674 296.659 120.44 295.851L120.368 295.969C120.253 296.17 120.151 296.381 120.062 296.6C120.062 300.05 117.085 304.271 117.085 304.271L114.089 299.208L111.467 303.885C111.089 304.118 110.712 304.915 110.417 306.051C110.334 306.358 110.254 306.691 110.179 307.046C110.126 307.282 110.077 307.532 110.031 307.782C110.005 307.909 109.982 308.036 109.96 308.168L109.892 308.567V308.628C109.846 308.9 109.801 309.18 109.759 309.465C109.718 309.75 109.669 310.079 109.627 310.39C109.597 310.592 109.571 310.794 109.548 310.995C109.495 311.385 109.45 311.78 109.404 312.17C109.378 312.398 109.351 312.608 109.329 312.849L109.238 313.726C109.431 314.445 109.646 315.155 109.869 315.852C110.011 316.234 110.095 316.642 110.115 317.057C114.751 318.595 119.665 318.595 124.301 317.057C124.299 317.043 124.299 317.028 124.301 317.014C124.231 316.62 124.2 316.219 124.21 315.817V315.817C124.286 314.692 124.412 313.573 124.588 312.464C124.644 311.917 124.668 311.366 124.66 310.815V310.618C124.648 310.452 124.644 310.294 124.641 310.136ZM128.645 301.908L127.297 295.662L127.066 294.592L127.002 294.299L126.673 292.773C126.674 292.76 126.674 292.747 126.673 292.734V292.734C126.681 292.667 126.672 292.598 126.647 292.537C126.598 292.423 126.473 292.304 126.182 292.274C126.071 292.265 125.96 292.265 125.85 292.274V292.274C125.521 292.311 125.197 292.382 124.879 292.484C124.724 292.532 124.558 292.585 124.38 292.651L124.055 292.769H124.025C123.155 293.1 122.347 293.621 121.645 294.303C121.181 294.752 120.774 295.274 120.436 295.855L120.364 295.973C120.249 296.175 120.147 296.386 120.058 296.604C120.058 300.054 117.081 304.275 117.081 304.275L114.085 299.213L113.915 298.928L113.885 298.879L113.45 298.139L113.122 297.63L113.035 297.499L111.486 295.101L110.995 294.325V294.299L110.825 294.031L110.5 293.532L109.367 294.299L106.533 296.214L105.226 306.081V306.187L105.264 306.905L105.543 312.398V312.709L105.116 314.686C106.257 315.4 107.445 316.01 108.668 316.51L108.989 316.641C109.367 316.786 109.722 316.917 110.092 317.044C110.106 317.109 110.116 317.175 110.122 317.242C110.122 317.18 110.122 317.114 110.122 317.053C114.758 318.59 119.672 318.59 124.308 317.053L124.395 317.022C124.61 316.952 124.83 316.878 125.041 316.794L125.385 316.667C126.317 316.306 127.23 315.881 128.12 315.396L128.434 307.559L128.66 301.961L128.645 301.908ZM110.065 317.044C110.079 317.109 110.089 317.175 110.096 317.242C110.096 317.18 110.096 317.114 110.096 317.053L110.065 317.044ZM124.641 310.136C124.641 309.961 124.641 309.785 124.614 309.61C124.588 309.435 124.592 309.281 124.573 309.115C124.554 308.948 124.539 308.782 124.52 308.615C124.501 308.448 124.474 308.282 124.448 308.115C124.422 307.949 124.395 307.782 124.365 307.616C124.365 307.559 124.346 307.506 124.335 307.449C124.293 307.23 124.248 307.011 124.199 306.787C124.15 306.564 124.119 306.432 124.074 306.257C124.074 306.178 124.036 306.099 124.014 306.024C123.991 305.95 123.949 305.77 123.915 305.643L123.847 305.398C123.817 305.288 123.787 305.178 123.753 305.069C123.696 304.872 123.636 304.679 123.575 304.481C123.515 304.284 123.451 304.091 123.386 303.898C123.258 303.504 123.118 303.114 122.978 302.724C122.431 301.207 121.815 299.712 121.248 298.231C120.944 297.454 120.674 296.659 120.44 295.851L120.368 295.969C120.253 296.17 120.151 296.381 120.062 296.6C120.062 300.05 117.085 304.271 117.085 304.271L114.089 299.208L111.467 303.885C111.089 304.118 110.712 304.915 110.417 306.051C110.334 306.358 110.254 306.691 110.179 307.046C110.126 307.282 110.077 307.532 110.031 307.782C110.005 307.909 109.982 308.036 109.96 308.168L109.892 308.567V308.628C109.846 308.9 109.801 309.18 109.759 309.465C109.718 309.75 109.669 310.079 109.627 310.39C109.597 310.592 109.571 310.794 109.548 310.995C109.495 311.385 109.45 311.78 109.404 312.17C109.378 312.398 109.351 312.608 109.329 312.849L109.238 313.726C109.431 314.445 109.646 315.155 109.869 315.852C110.011 316.234 110.095 316.642 110.115 317.057C114.751 318.595 119.665 318.595 124.301 317.057C124.299 317.043 124.299 317.028 124.301 317.014C124.231 316.62 124.2 316.219 124.21 315.817V315.817C124.286 314.692 124.412 313.573 124.588 312.464C124.644 311.917 124.668 311.366 124.66 310.815V310.618C124.648 310.452 124.644 310.294 124.641 310.136ZM124.641 310.136C124.641 309.961 124.641 309.785 124.614 309.61C124.588 309.435 124.592 309.281 124.573 309.115C124.554 308.948 124.539 308.782 124.52 308.615C124.501 308.448 124.474 308.282 124.448 308.115C124.422 307.949 124.395 307.782 124.365 307.616C124.365 307.559 124.346 307.506 124.335 307.449C124.293 307.23 124.248 307.011 124.199 306.787C124.15 306.564 124.119 306.432 124.074 306.257C124.074 306.178 124.036 306.099 124.014 306.024C123.991 305.95 123.949 305.77 123.915 305.643L123.847 305.398C123.817 305.288 123.787 305.178 123.753 305.069C123.696 304.872 123.636 304.679 123.575 304.481C123.515 304.284 123.451 304.091 123.386 303.898C123.258 303.504 123.118 303.114 122.978 302.724C122.431 301.207 121.815 299.712 121.248 298.231C120.944 297.454 120.674 296.659 120.44 295.851L120.368 295.969C120.253 296.17 120.151 296.381 120.062 296.6C120.062 300.05 117.085 304.271 117.085 304.271L114.089 299.208L111.467 303.885C111.089 304.118 110.712 304.915 110.417 306.051C110.334 306.358 110.254 306.691 110.179 307.046C110.126 307.282 110.077 307.532 110.031 307.782C110.005 307.909 109.982 308.036 109.96 308.168L109.892 308.567V308.628C109.846 308.9 109.801 309.18 109.759 309.465C109.718 309.75 109.669 310.079 109.627 310.39C109.597 310.592 109.571 310.794 109.548 310.995C109.495 311.385 109.45 311.78 109.404 312.17C109.378 312.398 109.351 312.608 109.329 312.849L109.238 313.726C109.431 314.445 109.646 315.155 109.869 315.852C110.011 316.234 110.095 316.642 110.115 317.057C114.751 318.595 119.665 318.595 124.301 317.057C124.299 317.043 124.299 317.028 124.301 317.014C124.231 316.62 124.2 316.219 124.21 315.817V315.817C124.286 314.692 124.412 313.573 124.588 312.464C124.644 311.917 124.668 311.366 124.66 310.815V310.618C124.648 310.452 124.644 310.294 124.641 310.136ZM124.641 310.136C124.641 309.961 124.641 309.785 124.614 309.61C124.588 309.435 124.592 309.281 124.573 309.115C124.554 308.948 124.539 308.782 124.52 308.615C124.501 308.448 124.474 308.282 124.448 308.115C124.422 307.949 124.395 307.782 124.365 307.616C124.365 307.559 124.346 307.506 124.335 307.449C124.293 307.23 124.248 307.011 124.199 306.787C124.15 306.564 124.119 306.432 124.074 306.257C124.074 306.178 124.036 306.099 124.014 306.024C123.991 305.95 123.949 305.77 123.915 305.643L123.847 305.398C123.817 305.288 123.787 305.178 123.753 305.069C123.696 304.872 123.636 304.679 123.575 304.481C123.515 304.284 123.451 304.091 123.386 303.898C123.258 303.504 123.118 303.114 122.978 302.724C122.431 301.207 121.815 299.712 121.248 298.231C120.944 297.454 120.674 296.659 120.44 295.851L120.368 295.969C120.253 296.17 120.151 296.381 120.062 296.6C120.062 300.05 117.085 304.271 117.085 304.271L114.089 299.208L111.467 303.885C111.089 304.118 110.712 304.915 110.417 306.051C110.334 306.358 110.254 306.691 110.179 307.046C110.126 307.282 110.077 307.532 110.031 307.782C110.005 307.909 109.982 308.036 109.96 308.168L109.892 308.567V308.628C109.846 308.9 109.801 309.18 109.759 309.465C109.718 309.75 109.669 310.079 109.627 310.39C109.597 310.592 109.571 310.794 109.548 310.995C109.495 311.385 109.45 311.78 109.404 312.17C109.378 312.398 109.351 312.608 109.329 312.849L109.238 313.726C109.431 314.445 109.646 315.155 109.869 315.852C110.011 316.234 110.095 316.642 110.115 317.057C114.751 318.595 119.665 318.595 124.301 317.057C124.299 317.043 124.299 317.028 124.301 317.014C124.231 316.62 124.2 316.219 124.21 315.817V315.817C124.286 314.692 124.412 313.573 124.588 312.464C124.644 311.917 124.668 311.366 124.66 310.815V310.618C124.648 310.452 124.644 310.294 124.641 310.136ZM124.641 310.136C124.641 309.961 124.641 309.785 124.614 309.61C124.588 309.435 124.592 309.281 124.573 309.115C124.554 308.948 124.539 308.782 124.52 308.615C124.501 308.448 124.474 308.282 124.448 308.115C124.422 307.949 124.395 307.782 124.365 307.616C124.365 307.559 124.346 307.506 124.335 307.449C124.293 307.23 124.248 307.011 124.199 306.787C124.15 306.564 124.119 306.432 124.074 306.257C124.074 306.178 124.036 306.099 124.014 306.024C123.991 305.95 123.949 305.77 123.915 305.643L123.847 305.398C123.817 305.288 123.787 305.178 123.753 305.069C123.696 304.872 123.636 304.679 123.575 304.481C123.515 304.284 123.451 304.091 123.386 303.898C123.258 303.504 123.118 303.114 122.978 302.724C122.431 301.207 121.815 299.712 121.248 298.231C120.944 297.454 120.674 296.659 120.44 295.851L120.368 295.969C120.253 296.17 120.151 296.381 120.062 296.6C120.062 300.05 117.085 304.271 117.085 304.271L114.089 299.208L111.467 303.885C111.089 304.118 110.712 304.915 110.417 306.051C110.334 306.358 110.254 306.691 110.179 307.046C110.126 307.282 110.077 307.532 110.031 307.782C110.005 307.909 109.982 308.036 109.96 308.168L109.892 308.567V308.628C109.846 308.9 109.801 309.18 109.759 309.465C109.718 309.75 109.669 310.079 109.627 310.39C109.597 310.592 109.571 310.794 109.548 310.995C109.495 311.385 109.45 311.78 109.404 312.17C109.378 312.398 109.351 312.608 109.329 312.849L109.238 313.726C109.431 314.445 109.646 315.155 109.869 315.852C110.011 316.234 110.095 316.642 110.115 317.057C114.751 318.595 119.665 318.595 124.301 317.057C124.299 317.043 124.299 317.028 124.301 317.014C124.231 316.62 124.2 316.219 124.21 315.817V315.817C124.286 314.692 124.412 313.573 124.588 312.464C124.644 311.917 124.668 311.366 124.66 310.815V310.618C124.648 310.452 124.644 310.294 124.641 310.136ZM124.641 310.136C124.641 309.961 124.641 309.785 124.614 309.61C124.588 309.435 124.592 309.281 124.573 309.115C124.554 308.948 124.539 308.782 124.52 308.615C124.501 308.448 124.474 308.282 124.448 308.115C124.422 307.949 124.395 307.782 124.365 307.616C124.365 307.559 124.346 307.506 124.335 307.449C124.293 307.23 124.248 307.011 124.199 306.787C124.15 306.564 124.119 306.432 124.074 306.257C124.074 306.178 124.036 306.099 124.014 306.024C123.991 305.95 123.949 305.77 123.915 305.643L123.847 305.398C123.817 305.288 123.787 305.178 123.753 305.069C123.696 304.872 123.636 304.679 123.575 304.481C123.515 304.284 123.451 304.091 123.386 303.898C123.258 303.504 123.118 303.114 122.978 302.724C122.431 301.207 121.815 299.712 121.248 298.231C120.944 297.454 120.674 296.659 120.44 295.851L120.368 295.969C120.253 296.17 120.151 296.381 120.062 296.6C120.062 300.05 117.085 304.271 117.085 304.271L114.089 299.208L111.467 303.885C111.089 304.118 110.712 304.915 110.417 306.051C110.334 306.358 110.254 306.691 110.179 307.046C110.126 307.282 110.077 307.532 110.031 307.782C110.005 307.909 109.982 308.036 109.96 308.168L109.892 308.567V308.628C109.846 308.9 109.801 309.18 109.759 309.465C109.718 309.75 109.669 310.079 109.627 310.39C109.597 310.592 109.571 310.794 109.548 310.995C109.495 311.385 109.45 311.78 109.404 312.17C109.378 312.398 109.351 312.608 109.329 312.849L109.238 313.726C109.431 314.445 109.646 315.155 109.869 315.852C110.011 316.234 110.095 316.642 110.115 317.057C114.751 318.595 119.665 318.595 124.301 317.057C124.299 317.043 124.299 317.028 124.301 317.014C124.231 316.62 124.2 316.219 124.21 315.817V315.817C124.286 314.692 124.412 313.573 124.588 312.464C124.644 311.917 124.668 311.366 124.66 310.815V310.618C124.648 310.452 124.644 310.294 124.641 310.136ZM124.641 310.136C124.641 309.961 124.641 309.785 124.614 309.61C124.588 309.435 124.592 309.281 124.573 309.115C124.554 308.948 124.539 308.782 124.52 308.615C124.501 308.448 124.474 308.282 124.448 308.115C124.422 307.949 124.395 307.782 124.365 307.616C124.365 307.559 124.346 307.506 124.335 307.449C124.293 307.23 124.248 307.011 124.199 306.787C124.15 306.564 124.119 306.432 124.074 306.257C124.074 306.178 124.036 306.099 124.014 306.024C123.991 305.95 123.949 305.77 123.915 305.643L123.847 305.398C123.817 305.288 123.787 305.178 123.753 305.069C123.696 304.872 123.636 304.679 123.575 304.481C123.515 304.284 123.451 304.091 123.386 303.898C123.258 303.504 123.118 303.114 122.978 302.724C122.431 301.207 121.815 299.712 121.248 298.231C120.944 297.454 120.674 296.659 120.44 295.851L120.368 295.969C120.253 296.17 120.151 296.381 120.062 296.6C120.062 300.05 117.085 304.271 117.085 304.271L114.089 299.208L111.467 303.885C111.089 304.118 110.712 304.915 110.417 306.051C110.334 306.358 110.254 306.691 110.179 307.046C110.126 307.282 110.077 307.532 110.031 307.782C110.005 307.909 109.982 308.036 109.96 308.168L109.892 308.567V308.628C109.846 308.9 109.801 309.18 109.759 309.465C109.718 309.75 109.669 310.079 109.627 310.39C109.597 310.592 109.571 310.794 109.548 310.995C109.495 311.385 109.45 311.78 109.404 312.17C109.378 312.398 109.351 312.608 109.329 312.849L109.238 313.726C109.431 314.445 109.646 315.155 109.869 315.852C110.011 316.234 110.095 316.642 110.115 317.057C114.751 318.595 119.665 318.595 124.301 317.057C124.299 317.043 124.299 317.028 124.301 317.014C124.231 316.62 124.2 316.219 124.21 315.817V315.817C124.286 314.692 124.412 313.573 124.588 312.464C124.644 311.917 124.668 311.366 124.66 310.815V310.618C124.648 310.452 124.644 310.294 124.641 310.136ZM124.641 310.136C124.641 309.961 124.641 309.785 124.614 309.61C124.588 309.435 124.592 309.281 124.573 309.115C124.554 308.948 124.539 308.782 124.52 308.615C124.501 308.448 124.474 308.282 124.448 308.115C124.422 307.949 124.395 307.782 124.365 307.616C124.365 307.559 124.346 307.506 124.335 307.449C124.293 307.23 124.248 307.011 124.199 306.787C124.15 306.564 124.119 306.432 124.074 306.257C124.074 306.178 124.036 306.099 124.014 306.024C123.991 305.95 123.949 305.77 123.915 305.643L123.847 305.398C123.817 305.288 123.787 305.178 123.753 305.069C123.696 304.872 123.636 304.679 123.575 304.481C123.515 304.284 123.451 304.091 123.386 303.898C123.258 303.504 123.118 303.114 122.978 302.724C122.431 301.207 121.815 299.712 121.248 298.231C120.944 297.454 120.674 296.659 120.44 295.851L120.368 295.969C120.253 296.17 120.151 296.381 120.062 296.6C120.062 300.05 117.085 304.271 117.085 304.271L114.089 299.208L111.467 303.885C111.089 304.118 110.712 304.915 110.417 306.051C110.334 306.358 110.254 306.691 110.179 307.046C110.126 307.282 110.077 307.532 110.031 307.782C110.005 307.909 109.982 308.036 109.96 308.168L109.892 308.567V308.628C109.846 308.9 109.801 309.18 109.759 309.465C109.718 309.75 109.669 310.079 109.627 310.39C109.597 310.592 109.571 310.794 109.548 310.995C109.495 311.385 109.45 311.78 109.404 312.17C109.378 312.398 109.351 312.608 109.329 312.849L109.238 313.726C109.431 314.445 109.646 315.155 109.869 315.852C110.011 316.234 110.095 316.642 110.115 317.057C114.751 318.595 119.665 318.595 124.301 317.057C124.299 317.043 124.299 317.028 124.301 317.014C124.231 316.62 124.2 316.219 124.21 315.817V315.817C124.286 314.692 124.412 313.573 124.588 312.464C124.644 311.917 124.668 311.366 124.66 310.815V310.618C124.648 310.452 124.644 310.294 124.641 310.136ZM124.641 310.136C124.641 309.961 124.641 309.785 124.614 309.61C124.588 309.435 124.592 309.281 124.573 309.115C124.554 308.948 124.539 308.782 124.52 308.615C124.501 308.448 124.474 308.282 124.448 308.115C124.422 307.949 124.395 307.782 124.365 307.616C124.365 307.559 124.346 307.506 124.335 307.449C124.293 307.23 124.248 307.011 124.199 306.787C124.15 306.564 124.119 306.432 124.074 306.257C124.074 306.178 124.036 306.099 124.014 306.024C123.991 305.95 123.949 305.77 123.915 305.643L123.847 305.398C123.817 305.288 123.787 305.178 123.753 305.069C123.696 304.872 123.636 304.679 123.575 304.481C123.515 304.284 123.451 304.091 123.386 303.898C123.258 303.504 123.118 303.114 122.978 302.724C122.431 301.207 121.815 299.712 121.248 298.231C120.944 297.454 120.674 296.659 120.44 295.851L120.368 295.969C120.253 296.17 120.151 296.381 120.062 296.6C120.062 300.05 117.085 304.271 117.085 304.271L114.089 299.208L111.467 303.885C111.089 304.118 110.712 304.915 110.417 306.051C110.334 306.358 110.254 306.691 110.179 307.046C110.126 307.282 110.077 307.532 110.031 307.782C110.005 307.909 109.982 308.036 109.96 308.168L109.892 308.567V308.628C109.846 308.9 109.801 309.18 109.759 309.465C109.718 309.75 109.669 310.079 109.627 310.39C109.597 310.592 109.571 310.794 109.548 310.995C109.495 311.385 109.45 311.78 109.404 312.17C109.378 312.398 109.351 312.608 109.329 312.849L109.238 313.726C109.431 314.445 109.646 315.155 109.869 315.852C110.011 316.234 110.095 316.642 110.115 317.057C114.751 318.595 119.665 318.595 124.301 317.057C124.299 317.043 124.299 317.028 124.301 317.014C124.231 316.62 124.2 316.219 124.21 315.817V315.817C124.286 314.692 124.412 313.573 124.588 312.464C124.644 311.917 124.668 311.366 124.66 310.815V310.618C124.648 310.452 124.644 310.294 124.641 310.136Z" fill="#444176"/>
<path opacity="0.1" d="M114.141 298.914L113.887 298.874C113.505 298.814 113.127 298.727 112.754 298.611L112.614 298.568C111.692 298.265 110.684 297.722 110.457 296.766C110.39 296.458 110.397 296.135 110.48 295.832C110.607 295.311 110.779 294.806 110.994 294.324V294.298C111.022 294.23 111.053 294.165 111.088 294.101C111.4 293.394 111.871 292.798 112.452 292.378L111.998 292.461L108.16 293.185L102.21 294.298C102.21 294.298 101.152 294.053 99.7126 298.655C99.7126 298.712 99.6786 298.765 99.6635 298.826C99.3159 299.953 98.9495 301.36 98.5717 303.118C98.311 304.336 98.073 305.533 97.8539 306.695C97.7897 307.045 97.7254 307.392 97.665 307.733C98.3461 308.665 99.0794 309.544 99.86 310.364L99.9846 310.499C101.514 312.106 103.203 313.494 105.017 314.633L105.089 314.677C106.23 315.391 107.417 316.001 108.64 316.5L108.961 316.632C109.029 315.821 109.105 314.922 109.195 314.002C109.195 313.91 109.195 313.818 109.225 313.726L109.316 312.849C109.339 312.625 109.365 312.411 109.392 312.17C109.437 311.779 109.482 311.385 109.535 310.995C109.558 310.793 109.584 310.591 109.615 310.39C109.656 310.079 109.701 309.767 109.747 309.465C109.792 309.162 109.834 308.899 109.879 308.628V308.566L109.947 308.167C109.97 308.036 109.992 307.909 110.019 307.782C110.064 307.532 110.113 307.282 110.166 307.045C110.242 306.69 110.321 306.357 110.404 306.05C110.706 304.915 111.058 304.117 111.454 303.885L114.076 299.208L114.186 299.01L114.235 298.923L114.141 298.914Z" fill="black"/>
<path opacity="0.1" d="M114.772 275.577C115.951 275.344 117.137 274.845 118.308 275.138C119.291 275.375 120.11 276.133 121.01 276.659C121.878 277.166 122.827 277.457 123.798 277.514C124.152 277.568 124.511 277.486 124.821 277.282C125.29 276.905 125.358 276.133 125.279 275.476C125.052 273.608 124.047 272.004 123.012 270.549C122.599 269.927 122.122 269.366 121.591 268.879C120.235 267.717 118.441 267.52 116.759 267.608C114.84 267.708 112.891 268.138 111.225 269.256C110.091 270.01 107.492 272.385 108.395 274.104C109.343 275.901 113.288 275.87 114.772 275.577Z" fill="black"/>
<path opacity="0.5" d="M114.772 275.138C115.951 274.906 117.137 274.406 118.308 274.7C119.291 274.937 120.11 275.695 121.01 276.221C121.878 276.728 122.827 277.019 123.798 277.076C124.152 277.13 124.511 277.048 124.821 276.843C125.29 276.466 125.358 275.695 125.279 275.037C125.052 273.17 124.047 271.566 123.012 270.11C122.599 269.489 122.122 268.928 121.591 268.44C120.235 267.279 118.441 267.082 116.759 267.169C114.84 267.27 112.891 267.7 111.225 268.817C110.091 269.571 107.492 271.947 108.395 273.665C109.343 275.463 113.288 275.432 114.772 275.138Z" fill="#444176"/>
</g>
<path d="M218.519 253.672H218.576C218.659 256.609 219.018 259.266 219.709 260.002C221.356 261.755 228.187 258.249 227.718 256.127C227.624 255.689 227.465 254.97 227.265 254.062C229.109 253.795 230.684 253.186 231.311 251.932L232.497 256.175L232.58 256.478H232.603H232.671C233.453 265.078 235.225 282.936 236.642 285.33C238.531 288.499 240.703 302.232 240.703 302.232L244.764 330.405C244.764 330.405 246.328 346.623 247.265 348.377C247.538 348.712 247.9 348.929 248.293 348.995C247.745 350.897 246.959 353.12 246.026 354.36C244.137 356.824 241.651 361.755 239.464 361.404C237.276 361.054 236.653 366.336 240.714 367.037C242.962 367.427 246.547 366.954 249.301 366.454C249.301 367.866 250.148 369.487 252.275 369.856C256.336 370.561 264.772 368.449 264.772 368.449C264.772 368.449 271.95 364.942 272.271 362.461C272.498 360.664 271.398 353.448 270.786 349.666C271.92 347.557 270.711 329.361 270.711 329.361L268.523 294.5C268.523 294.5 269.774 275.134 268.523 271.609C267.741 269.418 267.451 259.336 267.341 252.125L268.852 252.239C268.938 252.119 269.016 251.991 269.086 251.858L269.464 251.888C269.464 251.888 271.353 249.425 269.778 245.55C268.618 242.67 268.837 229.669 269.022 223.194L269.245 220.126C269.328 220.033 269.391 219.919 269.43 219.793C272.36 219.333 275.209 218.333 277.866 216.829C278.668 216.443 279.415 215.916 280.08 215.269C281.644 213.516 280.703 202.943 277.579 187.097C274.455 171.25 271.644 172.657 271.644 172.657C271.644 172.657 264.145 171.952 260.707 166.67C257.269 161.388 254.961 161.458 254.961 161.458C254.874 160.765 254.813 160.112 254.772 159.503C254.772 159.275 254.742 159.064 254.73 158.836C255.899 157.575 256.79 156.007 257.33 154.264C258.032 153.826 258.897 153.681 259.57 153.129C259.741 152.985 259.897 152.817 260.035 152.629C260.708 151.908 261.136 150.929 261.24 149.872C261.347 148.718 261.3 147.551 261.1 146.414C260.862 144.73 260.511 143.008 259.664 141.684C258.818 140.36 257.552 139.562 256.332 138.822C253.028 136.808 249.715 134.815 246.392 132.843C245.744 132.382 245.019 132.084 244.266 131.966C242.936 131.878 241.742 132.935 240.669 133.938C240.241 134.329 239.831 134.746 239.441 135.188C239.11 135.529 238.807 135.906 238.538 136.314C237.284 138.265 236.751 141.938 237.303 144.375C237.477 145.147 237.851 145.37 238.312 145.362C237.628 146.939 237.272 148.681 237.273 150.446C237.28 152.38 237.706 154.28 238.512 155.972C239.319 157.664 240.478 159.094 241.885 160.13C241.885 160.375 241.885 160.616 241.904 160.848C241.92 161.748 241.895 162.648 241.829 163.544C241.829 163.544 233.517 168.756 232.584 171.22C231.651 173.683 228.209 175.445 228.209 175.445C228.209 175.445 221.647 179.32 221.647 193.054L218.209 212.42L217.586 249.394C217.586 249.394 218.017 248.956 218.719 248.333C218.697 248.579 218.678 248.833 218.659 249.092C218.565 250.505 218.534 251.922 218.564 253.339L218.519 253.672ZM260.492 349.367C260.363 349.933 260.174 350.683 259.936 351.559C259.831 350.832 259.725 350.113 259.619 349.429C259.891 349.398 260.182 349.381 260.492 349.367V349.367Z" fill="url(#paint2_linear_1_18)"/>
<path d="M249.142 344.827C249.142 344.827 247.937 351.112 246.12 353.554C244.303 355.996 241.923 360.888 239.822 360.537C237.722 360.186 237.113 365.424 241.027 366.121C244.941 366.818 253.045 364.727 253.045 364.727C253.045 364.727 259.966 361.221 260.264 358.792C260.563 356.364 258.458 343.779 258.458 343.779L249.142 344.827Z" fill="#53526B"/>
<path opacity="0.05" d="M249.142 344.827C249.142 344.827 247.937 351.112 246.12 353.554C244.303 355.996 241.923 360.888 239.822 360.537C237.722 360.186 237.113 365.424 241.027 366.121C244.941 366.818 253.045 364.727 253.045 364.727C253.045 364.727 259.966 361.221 260.264 358.792C260.563 356.364 258.458 343.779 258.458 343.779L249.142 344.827Z" fill="black"/>
<path d="M260.276 347.618C260.276 347.618 259.071 353.904 257.254 356.346C255.437 358.787 253.045 363.679 250.949 363.329C248.852 362.978 248.24 368.216 252.154 368.913C256.068 369.61 264.19 367.515 264.19 367.515C264.19 367.515 271.111 364.008 271.41 361.58C271.708 359.151 269.604 346.566 269.604 346.566L260.276 347.618Z" fill="#53526B"/>
<path d="M232.892 251.968C232.892 251.968 235.299 281.99 237.104 285.133C238.91 288.276 241.015 301.891 241.015 301.891L244.925 329.818C244.925 329.818 246.436 345.879 247.331 347.624C248.227 349.368 259.394 348.619 259.394 348.619L252.45 256.154L232.892 251.968Z" fill="#5F5D7E"/>
<path opacity="0.05" d="M232.892 251.968C232.892 251.968 235.299 281.99 237.104 285.133C238.91 288.276 241.015 301.891 241.015 301.891L244.925 329.818C244.925 329.818 246.436 345.879 247.331 347.624C248.227 349.368 259.394 348.619 259.394 348.619L252.45 256.154L232.892 251.968Z" fill="black"/>
<path d="M228.079 237.647L228.865 240.545L233.115 256.198L233.198 256.496H233.221C233.792 256.645 245.836 259.858 248.435 260.844C248.575 260.895 248.713 260.955 248.847 261.024C250.052 261.721 251.555 286.856 251.555 286.856C251.555 286.856 252.458 310.596 253.067 312.341C253.675 314.086 256.089 350.039 257.581 348.995C259.073 347.952 269.916 348.995 269.916 348.995C271.121 347.597 269.916 328.748 269.916 328.748L267.778 294.194C267.778 294.194 268.983 274.994 267.778 271.501C266.573 268.007 266.573 244.621 266.573 244.621L241.944 240.155L239.564 239.716L228.079 237.647Z" fill="#5F5D7E"/>
<path opacity="0.02" d="M228.865 240.549L233.115 256.202L233.217 256.509C233.788 256.658 245.832 259.871 248.431 260.857H248.692L241.963 240.159L241.771 239.562L239.583 239.725L228.865 240.549Z" fill="black"/>
<path opacity="0.1" d="M256.967 167.831C256.967 167.831 245.833 181.797 238.912 170.273L232.293 175.511L233.498 183.542L229.584 244.283C229.584 244.283 239.815 243.932 247.035 246.725C249.045 247.552 251.218 247.696 253.297 247.139C255.376 246.582 257.274 245.348 258.769 243.582L257.579 190.174L260.288 173.766L256.967 167.831Z" fill="black"/>
<path d="M256.967 166.784C256.967 166.784 245.833 180.75 238.912 169.225L232.293 174.464L233.498 182.494L229.584 243.236C229.584 243.236 239.815 242.885 247.035 245.677C249.045 246.505 251.218 246.649 253.297 246.092C255.376 245.535 257.274 244.301 258.769 242.534L257.579 189.126L260.288 172.719L256.967 166.784Z" fill="#53526B"/>
<path d="M234.742 228.976V231.176H234.138V229.712H231.927V231.176H231.319V228.98L234.742 228.976Z" fill="#E82127"/>
<path d="M234.2 228.266H231.865C231.712 228.223 231.572 228.133 231.461 228.005C231.349 227.877 231.269 227.715 231.231 227.538H234.831C234.792 227.715 234.713 227.876 234.601 228.004C234.489 228.133 234.349 228.223 234.196 228.266" fill="#E82127"/>
<path d="M255.311 227.561C255.271 227.736 255.191 227.896 255.08 228.023C254.969 228.15 254.831 228.24 254.68 228.284H253.698L253.648 228.306V231.182H253.044V228.306L252.987 228.284H252.005C251.854 228.239 251.717 228.148 251.606 228.021C251.495 227.894 251.415 227.736 251.374 227.561V227.561H255.311Z" fill="#E82127"/>
<path d="M233.796 239.05C233.796 239.05 233.797 248.128 231.991 251.968C230.185 255.807 219.656 253.721 219.656 253.721L221.76 240.803L233.796 239.05Z" fill="#D6DBE6"/>
<path d="M220.801 260.003C222.388 261.756 228.965 258.249 228.512 256.163C228.194 254.686 227.084 249.399 226.453 246.401L226.015 244.293C226.015 244.293 222.161 242.894 220.801 244.293C220.306 244.801 219.959 246.804 219.796 249.224C219.517 253.427 219.8 258.889 220.801 260.003Z" fill="#FDC2CC"/>
<path d="M235.288 173.065L245.817 182.49C245.817 182.49 261.461 181.442 257.551 172.715C255.849 168.876 254.821 164.683 254.529 160.38C254.402 158.792 254.402 157.194 254.529 155.606C254.529 155.606 240.086 140.264 241.892 157.701C242.034 159.04 242.117 160.386 242.141 161.734C242.356 174.823 235.288 173.065 235.288 173.065Z" fill="#FDC2CC"/>
<path opacity="0.1" d="M241.923 157.706C242.066 159.044 242.149 160.39 242.173 161.739C243.793 162.984 245.695 163.646 247.639 163.641C250.333 163.641 252.316 160.599 254.107 158.578C253.907 155.681 254.557 155.611 254.557 155.611C254.557 155.611 240.117 140.251 241.923 157.706Z" fill="black"/>
<path d="M247.637 162.944C253.121 162.944 257.566 157.786 257.566 151.424C257.566 145.062 253.121 139.904 247.637 139.904C242.154 139.904 237.709 145.062 237.709 151.424C237.709 157.786 242.154 162.944 247.637 162.944Z" fill="#FDC2CC"/>
<path opacity="0.1" d="M254.708 162.418C254.708 162.418 256.363 162.593 259.673 167.827C262.982 173.061 270.202 173.762 270.202 173.762C270.202 173.762 272.91 172.364 275.917 188.074C278.925 203.784 279.828 214.256 278.324 216.001C276.82 217.746 270.802 220.196 267.78 220.196C267.78 220.196 266.877 242.188 268.381 246.028C269.884 249.867 268.078 252.313 268.078 252.313L254.856 251.266C254.856 251.266 250.341 244.634 249.438 233.114C248.535 221.594 245.528 188.776 247.032 184.936C248.535 181.096 255.154 171.321 254.856 170.273C254.557 169.225 254.708 162.418 254.708 162.418Z" fill="black"/>
<path d="M254.74 162.313C254.74 162.313 256.965 162.243 260.275 167.481C263.584 172.719 270.8 173.416 270.8 173.416C270.8 173.416 273.509 172.018 276.516 187.728C279.523 203.438 280.426 213.91 278.923 215.655C277.419 217.4 271.401 219.846 268.393 219.846C268.393 219.846 267.491 241.837 268.994 245.677C270.498 249.517 268.692 251.963 268.692 251.963L255.469 250.916C255.469 250.916 250.955 244.283 250.052 232.764C249.149 221.244 246.134 188.429 247.638 184.607C249.141 180.785 255.76 170.992 255.462 169.944C255.163 168.897 254.74 162.313 254.74 162.313Z" fill="#D6DBE6"/>
<path opacity="0.1" d="M219.799 249.219C221.238 247.944 223.954 245.958 226.455 246.396L226.017 244.288C226.017 244.288 222.164 242.889 220.803 244.288C220.301 244.796 219.957 246.795 219.799 249.219Z" fill="black"/>
<path opacity="0.1" d="M242.088 164.514C242.088 164.514 234.415 170.273 233.512 172.719C232.609 175.165 229.3 176.91 229.3 176.91C229.3 176.91 222.983 180.75 222.983 194.365L219.673 213.564L234.717 238.002C234.717 238.002 236.523 213.564 237.426 207.629C238.329 201.694 239.53 190.534 239.53 190.534C239.53 190.534 244.045 183.901 243.44 182.157C242.836 180.412 242.088 164.514 242.088 164.514Z" fill="black"/>
<path d="M242.089 164.408C242.089 164.408 234.087 169.576 233.188 172.018C232.289 174.459 228.976 176.208 228.976 176.208C228.976 176.208 222.659 180.048 222.659 193.663L219.35 212.862L218.749 249.517C218.749 249.517 224.166 243.582 228.077 246.374C231.987 249.166 234.393 237.296 234.393 237.296C234.393 237.296 236.199 212.858 237.102 206.923C238.005 200.988 239.206 189.828 239.206 189.828C239.206 189.828 243.721 183.195 243.116 181.451C242.512 179.706 242.089 164.408 242.089 164.408Z" fill="#D6DBE6"/>
<path opacity="0.1" d="M238.924 137.41C239.433 136.658 240.022 135.984 240.677 135.402C241.712 134.403 242.857 133.36 244.141 133.447C244.868 133.56 245.566 133.85 246.189 134.298C249.388 136.253 252.577 138.228 255.758 140.224C256.933 140.961 258.146 141.741 258.966 143.065C259.786 144.389 260.118 146.089 260.349 147.755C260.541 148.883 260.587 150.039 260.485 151.183C260.391 152.304 259.921 153.339 259.177 154.063C258.32 154.786 257.145 154.79 256.427 155.737C256.011 156.285 255.83 157.052 255.535 157.719C255.241 158.385 254.731 159.034 254.149 158.915C253.567 158.797 253.216 158.082 253.133 157.359C253.096 156.626 253.132 155.891 253.242 155.167C253.356 153.852 253.212 152.458 252.555 151.481C252.101 150.815 251.452 150.411 251.013 149.728C249.963 148.079 250.443 145.344 249.291 143.797C248.956 143.392 248.535 143.098 248.07 142.944C247.606 142.79 247.114 142.782 246.646 142.92C245.713 143.148 244.859 143.735 244.001 144.235C242.843 144.913 241.629 145.457 240.378 145.857C239.328 146.19 238.112 146.988 237.753 145.366C237.205 142.986 237.715 139.343 238.924 137.41Z" fill="black"/>
<path d="M239.225 137.064C239.734 136.312 240.323 135.637 240.978 135.056C242.013 134.057 243.158 133.013 244.442 133.101C245.169 133.213 245.867 133.503 246.49 133.952C249.686 135.907 252.342 134.057 256.059 139.878C256.853 141.123 258.447 141.395 259.267 142.718C260.087 144.042 260.419 145.743 260.649 147.409C260.842 148.537 260.888 149.692 260.785 150.837C260.692 151.958 260.222 152.992 259.478 153.716C258.621 154.44 257.446 154.444 256.728 155.391C256.312 155.939 256.131 156.706 255.836 157.372C255.542 158.039 255.032 158.687 254.45 158.569C253.868 158.451 253.517 157.736 253.434 157.013C253.397 156.28 253.433 155.544 253.543 154.821C253.656 153.506 253.513 152.112 252.856 151.135C252.402 150.468 251.752 150.065 251.314 149.381C250.264 147.733 250.744 144.998 249.591 143.45C249.257 143.046 248.836 142.752 248.371 142.598C247.907 142.444 247.415 142.435 246.947 142.574C246.014 142.802 245.16 143.389 244.302 143.889C243.144 144.567 241.93 145.11 240.679 145.511C239.629 145.844 238.413 146.642 238.054 145.02C237.502 142.64 238.016 138.992 239.225 137.064Z" fill="#865A61"/>
<path opacity="0.1" d="M266.342 190.344C266.342 190.344 270.354 202.215 267.343 207.102L260.725 205.349C260.725 205.349 266.743 207.444 265.84 203.253C264.937 199.063 266.342 190.344 266.342 190.344Z" fill="black"/>
<path opacity="0.1" d="M268.534 219.674C268.534 219.674 259.808 220.371 257.401 218.276C260.57 221.083 264.312 222.888 268.262 223.514L268.534 219.674Z" fill="black"/>
<path opacity="0.1" d="M230.94 197.319C230.94 197.319 226.425 213.38 226.727 215.822C227.03 218.264 227.63 245.147 227.63 245.147L228.533 244.797L228.231 215.471L230.94 197.319Z" fill="black"/>
<path d="M269.596 216.948L166.459 120.512C165.859 119.816 165.146 119.264 164.362 118.888C163.577 118.512 162.737 118.319 161.888 118.321H157.506C166.263 105.299 170.41 88.892 169.102 72.4449C167.793 55.9979 161.127 40.7493 150.462 29.8085C139.798 18.8676 125.938 13.0584 111.71 13.5652C97.4809 14.072 83.9546 20.8568 73.8887 32.5361C63.8228 44.2154 57.9753 59.9097 57.5384 76.4189C57.1016 92.9281 62.1084 109.009 71.5379 121.383C80.9674 133.757 94.1095 141.491 108.285 143.01C122.46 144.528 136.6 139.717 147.823 129.555V134.636C147.822 135.621 147.988 136.596 148.312 137.506C148.636 138.416 149.112 139.243 149.712 139.94L252.849 236.375C253.446 237.074 254.156 237.628 254.939 238.007C255.722 238.385 256.561 238.58 257.409 238.58C258.257 238.58 259.096 238.385 259.879 238.007C260.661 237.628 261.372 237.074 261.969 236.375L269.57 227.565C270.783 226.158 271.467 224.252 271.471 222.263C271.476 220.273 270.802 218.362 269.596 216.948V216.948ZM113.391 118.321C106.581 118.321 99.9239 115.977 94.2616 111.588C88.5993 107.198 84.1861 100.958 81.58 93.6583C78.974 86.3583 78.2921 78.3255 79.6206 70.5758C80.9492 62.8262 84.2285 55.7076 89.0439 50.1204C93.8593 44.5332 99.9945 40.7283 106.674 39.1868C113.353 37.6452 120.276 38.4364 126.568 41.4602C132.859 44.484 138.237 49.6045 142.02 56.1744C145.804 62.7443 147.823 70.4683 147.823 78.3698C147.826 83.6178 146.938 88.8151 145.209 93.6644C143.48 98.5138 140.944 102.92 137.746 106.631C134.548 110.343 130.751 113.286 126.572 115.293C122.393 117.301 117.914 118.332 113.391 118.329V118.321Z" fill="url(#paint3_linear_1_18)"/>
<path d="M270.352 216.071L167.215 119.636C166.615 118.939 165.902 118.387 165.117 118.011C164.333 117.635 163.492 117.442 162.644 117.444H158.261C167.019 104.422 171.166 88.0153 169.857 71.5683C168.548 55.1212 161.882 39.8727 151.218 28.9318C140.553 17.9909 126.694 12.1817 112.465 12.6885C98.2364 13.1953 84.7101 19.9801 74.6442 31.6594C64.5783 43.3387 58.7307 59.033 58.2939 75.5422C57.8571 92.0515 62.8639 108.132 72.2934 120.506C81.7229 132.88 94.865 140.615 109.04 142.133C123.215 143.652 137.356 138.84 148.578 128.679V133.759C148.577 134.744 148.743 135.719 149.067 136.629C149.392 137.54 149.867 138.367 150.467 139.063L253.604 235.499C254.202 236.197 254.912 236.752 255.694 237.13C256.477 237.508 257.317 237.703 258.164 237.703C259.012 237.703 259.852 237.508 260.634 237.13C261.417 236.752 262.127 236.197 262.724 235.499L270.326 226.688C271.538 225.282 272.222 223.376 272.227 221.386C272.232 219.397 271.558 217.486 270.352 216.071V216.071ZM114.146 117.444C107.336 117.444 100.679 115.101 95.0171 110.711C89.3548 106.321 84.9416 100.082 82.3355 92.7817C79.7294 85.4816 79.0476 77.4489 80.3761 69.6992C81.7047 61.9495 84.984 54.831 89.7994 49.2437C94.6148 43.6565 100.75 39.8516 107.429 38.3101C114.108 36.7686 121.031 37.5597 127.323 40.5835C133.615 43.6073 138.992 48.7279 142.776 55.2977C146.559 61.8676 148.578 69.5917 148.578 77.4932C148.582 82.7411 147.694 87.9384 145.965 92.7878C144.236 97.6371 141.7 102.043 138.502 105.755C135.304 109.466 131.507 112.409 127.328 114.417C123.149 116.424 118.669 117.456 114.146 117.453V117.444Z" fill="#2D74DA"/>
<path d="M262.681 207.278C262.681 207.278 247.626 187.246 249.742 200.993C251.253 210.768 256.961 216.006 259.67 217.054C262.379 218.101 262.681 207.278 262.681 207.278Z" fill="#FDC2CC"/>
<path d="M266.294 188.775C266.294 188.775 266.596 201.693 268.1 203.438C269.603 205.182 267.197 207.278 267.197 207.278L261.179 205.524C261.179 205.524 262.69 217.044 256.366 215.65C256.366 215.65 260.578 220.187 264.79 220.888C269.003 221.59 268.701 219.841 268.701 219.841L275.017 211.113L266.294 188.775Z" fill="#D6DBE6"/>
<path d="M267.961 220.029L274.066 218.473L273.25 215.207L269.472 213.454L264.561 216.084L267.961 220.029Z" fill="#D6DBE6"/>
<path d="M117.913 94.0491L126.039 86.777C126.039 86.777 120.596 88.1315 120.75 78.0364C120.749 78.0028 120.749 77.9691 120.75 77.9356C120.75 77.0238 120.826 76.0244 120.939 74.9241C122.333 61.4538 111.189 73.3066 111.189 73.3066C111.284 74.4993 111.284 75.6997 111.189 76.8923C111.189 76.923 111.189 76.9581 111.189 76.9887C110.968 80.3082 110.179 83.5434 108.869 86.5052C105.843 93.2382 117.913 94.0491 117.913 94.0491Z" fill="#FDC2CC"/>
<path opacity="0.1" d="M112.228 75.0206C113.607 76.5767 114.449 79.404 116.523 79.404C118.024 79.4078 119.492 78.8969 120.743 77.9356C120.743 77.0238 120.819 76.0244 120.932 74.9241C122.326 61.4538 111.181 73.3066 111.181 73.3066C111.181 73.3066 112.375 72.8288 112.228 75.0206Z" fill="black"/>
<path d="M116.522 78.9657C120.753 78.9657 124.183 74.9857 124.183 70.0761C124.183 65.1665 120.753 61.1865 116.522 61.1865C112.29 61.1865 108.86 65.1665 108.86 70.0761C108.86 74.9857 112.29 78.9657 116.522 78.9657Z" fill="#FDC2CC"/>
<path opacity="0.1" d="M123.87 58.6921C123.431 58.0478 122.923 57.4704 122.359 56.9738C121.475 56.119 120.493 55.2204 119.394 55.2993C118.772 55.3954 118.174 55.6434 117.641 56.027C114.902 57.7014 112.631 56.119 109.446 61.0986C108.766 62.1638 107.402 62.4137 106.7 63.5314C105.997 64.6492 105.714 66.1177 105.514 67.5467C105.348 68.5133 105.309 69.5033 105.396 70.4836C105.48 71.4457 105.888 72.3307 106.53 72.9471C107.263 73.5651 108.271 73.5695 108.887 74.3805C109.197 74.9087 109.451 75.4782 109.643 76.0769C109.892 76.6467 110.33 77.1859 110.829 77.1026C111.328 77.0193 111.626 76.3925 111.698 75.7875C111.729 75.1615 111.697 74.5334 111.604 73.9158C111.509 72.8068 111.63 71.597 112.193 70.7597C112.571 70.1855 113.137 69.8436 113.511 69.2606C114.411 67.8535 114.002 65.4908 114.989 64.1846C115.277 63.841 115.639 63.5923 116.037 63.4637C116.435 63.3351 116.855 63.3312 117.255 63.4525C118.049 63.7155 118.811 64.0956 119.522 64.5835C120.514 65.1644 121.553 65.6298 122.624 65.973C123.523 66.2579 124.566 66.9418 124.872 65.5347C125.351 63.4657 124.902 60.3447 123.87 58.6921Z" fill="black"/>
<path d="M123.87 58.2538C123.431 57.6094 122.923 57.0321 122.359 56.5355C121.475 55.6807 120.493 54.7821 119.394 54.861C118.772 54.957 118.174 55.205 117.641 55.5886C114.902 57.2631 112.631 55.6807 109.446 60.6603C108.766 61.7255 107.402 61.9753 106.7 63.0931C105.997 64.2109 105.714 65.6793 105.514 67.1083C105.348 68.075 105.309 69.065 105.396 70.0452C105.48 71.0074 105.888 71.8924 106.53 72.5087C107.263 73.1268 108.271 73.1312 108.887 73.9421C109.197 74.4703 109.451 75.0399 109.643 75.6385C109.892 76.2084 110.33 76.7475 110.829 76.6642C111.328 76.581 111.626 75.9541 111.698 75.3492C111.729 74.7232 111.697 74.095 111.604 73.4775C111.509 72.3685 111.63 71.1586 112.193 70.3214C112.571 69.7472 113.137 69.4053 113.511 68.8223C114.411 67.4152 114.002 65.0525 114.989 63.7462C115.277 63.4027 115.639 63.1539 116.037 63.0253C116.435 62.8967 116.855 62.8929 117.255 63.0142C118.049 63.2772 118.811 63.6573 119.522 64.1451C120.514 64.726 121.553 65.1915 122.624 65.5347C123.523 65.8196 124.566 66.5034 124.872 65.0963C125.351 63.0273 124.902 59.9063 123.87 58.2538Z" fill="#865A61"/>
<path opacity="0.1" d="M108.86 98.7266L108.709 105.455C110.904 106.147 113.17 106.497 115.445 106.494C115.823 106.494 116.219 106.494 116.605 106.463C118.622 106.362 120.622 105.983 122.562 105.332H122.6C122.959 105.21 123.314 105.083 123.665 104.942H123.703L124.024 104.811C125.247 104.311 126.435 103.701 127.576 102.987L127.647 102.943C127.772 102.865 127.897 102.786 128.025 102.702L127.44 93.633L128.373 87.4129L123.265 83.3758C122.978 83.8562 122.657 84.3078 122.305 84.7259C121.801 85.3369 121.211 85.8439 120.56 86.225C116.895 88.3203 112.725 84.9889 110.651 82.9287L110.178 82.4421C109.642 81.8766 109.336 81.4909 109.336 81.4909L106.782 86.0672L108.86 98.7266Z" fill="black"/>
<path d="M108.86 99.1649L108.709 105.893C110.904 106.586 113.17 106.935 115.445 106.932C115.823 106.932 116.219 106.932 116.605 106.902C118.622 106.801 120.622 106.421 122.562 105.771H122.6C122.959 105.648 123.314 105.521 123.665 105.381H123.703L124.024 105.249C125.247 104.749 126.435 104.14 127.576 103.426L127.647 103.382C127.772 103.303 127.897 103.224 128.025 103.141L127.44 94.0713L128.373 87.8512L123.265 83.8141C122.978 84.2945 122.657 84.7461 122.305 85.1642C121.801 85.7752 121.211 86.2822 120.56 86.6633C116.895 88.7586 112.725 85.4272 110.651 83.3669L110.178 82.8804C109.642 82.3149 109.336 81.9292 109.336 81.9292L106.782 86.5055L108.86 99.1649Z" fill="#53526B"/>
<path d="M123.02 99.7039C123.02 99.7039 123.299 102.286 123.666 105.372H123.704L124.025 105.24C125.248 104.741 126.435 104.131 127.576 103.417L127.648 103.373C127.772 103.294 127.897 103.215 128.026 103.132C129.7 102.041 131.264 100.735 132.687 99.2392L132.812 99.1034C133.593 98.2835 134.326 97.4049 135.007 96.4733L135.086 96.3637C133.738 90.9326 130.931 89.2231 130.931 89.2231C130.931 89.2231 128.377 87.873 127.678 85.9881C126.979 84.1032 120.81 80.1187 120.81 80.1187V80.1493C120.81 80.4869 120.711 83.5772 120.564 86.6851C120.47 88.7058 120.353 90.7354 120.217 92.0241C120.187 92.4428 120.121 92.8569 120.02 93.2602C119.54 94.5884 123.02 99.7039 123.02 99.7039Z" fill="#555388"/>
<defs>
<linearGradient id="paint0_linear_1_18" x1="194.291" y1="348.311" x2="194.291" y2="17.2249" gradientUnits="userSpaceOnUse">
<stop stop-color="#808080" stop-opacity="0.25"/>
<stop offset="0.54" stop-color="#808080" stop-opacity="0.12"/>
<stop offset="1" stop-color="#808080" stop-opacity="0.1"/>
</linearGradient>
<linearGradient id="paint1_linear_1_18" x1="14130.7" y1="27155.4" x2="14130.7" y2="20735.4" gradientUnits="userSpaceOnUse">
<stop stop-color="#808080" stop-opacity="0.25"/>
<stop offset="0.54" stop-color="#808080" stop-opacity="0.12"/>
<stop offset="1" stop-color="#808080" stop-opacity="0.1"/>
</linearGradient>
<linearGradient id="paint2_linear_1_18" x1="-66060.2" y1="206750" x2="-66060.2" y2="77494.7" gradientUnits="userSpaceOnUse">
<stop stop-color="#808080" stop-opacity="0.25"/>
<stop offset="0.54" stop-color="#808080" stop-opacity="0.12"/>
<stop offset="1" stop-color="#808080" stop-opacity="0.1"/>
</linearGradient>
<linearGradient id="paint3_linear_1_18" x1="102439" y1="127873" x2="102439" y2="12294.2" gradientUnits="userSpaceOnUse">
<stop stop-color="#808080" stop-opacity="0.25"/>
<stop offset="0.54" stop-color="#808080" stop-opacity="0.12"/>
<stop offset="1" stop-color="#808080" stop-opacity="0.1"/>
</linearGradient>
</defs>
</svg>
