<svg width="421" height="345" viewBox="0 0 421 345" fill="none" xmlns="http://www.w3.org/2000/svg">
<path opacity="0.1" d="M395.548 200.861C380.757 224.409 385.638 258.021 394.188 284.8C397.051 293.764 400.304 303.245 398.819 312.999C397.006 324.922 388.483 333.855 379.624 338.721C363.473 347.588 344.395 346.173 329.948 334.999C317.481 325.356 308.705 309.33 295.996 300.146C274.726 284.782 247.113 291.647 223.441 303.377C206.694 311.675 188.348 322.362 172.027 314.699C160.543 309.308 152.809 295.583 148.74 280.912C146.776 273.828 145.401 266.139 141.487 260.594C139.16 257.298 136.084 255.001 132.922 253.081C104.063 235.547 66.9409 246.506 38.9616 226.943C20.0721 213.731 8.31518 188.092 3.43034 161.138C-1.45451 134.184 -0.245573 105.731 1.70005 77.765C3.08277 57.8904 5.27019 36.6526 15.5688 21.0344C26.4605 4.5219 44.7154 -2.04013 61.0398 0.546107C77.3642 3.13234 91.9998 13.6526 104.803 26.2112C120.818 41.8777 135.552 61.5462 155.469 67.4946C169.035 71.5449 183.448 68.6781 197.551 67.4113C221.125 65.2985 244.616 67.7313 267.964 70.4797C290.314 73.1098 312.819 76.0467 333.987 84.669C348.966 90.7707 360.84 102.304 374.943 110.185C384.135 115.322 394.248 116.515 402.9 123.151C413.576 131.326 423.225 145.809 420.093 163.19C417.135 179.711 403.406 188.364 395.548 200.861Z" fill="#2D74DA"/>
</svg>
